%TF.GenerationSoftware,KiCad,Pcbnew,9.0.0*%
%TF.CreationDate,2025-03-04T06:42:26+08:00*%
%TF.ProjectId,STEC_Design,53544543-5f44-4657-9369-676e2e6b6963,0*%
%TF.SameCoordinates,Original*%
%TF.FileFunction,Copper,L1,Top*%
%TF.FilePolarity,Positive*%
%FSLAX46Y46*%
G04 Gerber Fmt 4.6, Leading zero omitted, Abs format (unit mm)*
G04 Created by KiCad (PCBNEW 9.0.0) date 2025-03-04 06:42:26*
%MOMM*%
%LPD*%
G01*
G04 APERTURE LIST*
G04 Aperture macros list*
%AMRoundRect*
0 Rectangle with rounded corners*
0 $1 Rounding radius*
0 $2 $3 $4 $5 $6 $7 $8 $9 X,Y pos of 4 corners*
0 Add a 4 corners polygon primitive as box body*
4,1,4,$2,$3,$4,$5,$6,$7,$8,$9,$2,$3,0*
0 Add four circle primitives for the rounded corners*
1,1,$1+$1,$2,$3*
1,1,$1+$1,$4,$5*
1,1,$1+$1,$6,$7*
1,1,$1+$1,$8,$9*
0 Add four rect primitives between the rounded corners*
20,1,$1+$1,$2,$3,$4,$5,0*
20,1,$1+$1,$4,$5,$6,$7,0*
20,1,$1+$1,$6,$7,$8,$9,0*
20,1,$1+$1,$8,$9,$2,$3,0*%
G04 Aperture macros list end*
%TA.AperFunction,ComponentPad*%
%ADD10R,1.800000X1.800000*%
%TD*%
%TA.AperFunction,ComponentPad*%
%ADD11C,1.800000*%
%TD*%
%TA.AperFunction,ComponentPad*%
%ADD12R,1.090000X1.090000*%
%TD*%
%TA.AperFunction,ComponentPad*%
%ADD13C,1.090000*%
%TD*%
%TA.AperFunction,ComponentPad*%
%ADD14R,1.905000X2.000000*%
%TD*%
%TA.AperFunction,ComponentPad*%
%ADD15O,1.905000X2.000000*%
%TD*%
%TA.AperFunction,ComponentPad*%
%ADD16C,1.600000*%
%TD*%
%TA.AperFunction,ComponentPad*%
%ADD17O,1.600000X1.600000*%
%TD*%
%TA.AperFunction,ComponentPad*%
%ADD18RoundRect,0.250001X-0.899999X-0.899999X0.899999X-0.899999X0.899999X0.899999X-0.899999X0.899999X0*%
%TD*%
%TA.AperFunction,ComponentPad*%
%ADD19C,2.300000*%
%TD*%
%TA.AperFunction,ComponentPad*%
%ADD20R,1.845000X1.845000*%
%TD*%
%TA.AperFunction,ComponentPad*%
%ADD21C,1.845000*%
%TD*%
%TA.AperFunction,ComponentPad*%
%ADD22RoundRect,0.250002X-1.499998X-1.499998X1.499998X-1.499998X1.499998X1.499998X-1.499998X1.499998X0*%
%TD*%
%TA.AperFunction,ComponentPad*%
%ADD23C,3.500000*%
%TD*%
%TA.AperFunction,ComponentPad*%
%ADD24C,2.000000*%
%TD*%
%TA.AperFunction,ComponentPad*%
%ADD25R,1.408000X1.408000*%
%TD*%
%TA.AperFunction,ComponentPad*%
%ADD26C,1.408000*%
%TD*%
%TA.AperFunction,Conductor*%
%ADD27C,0.200000*%
%TD*%
G04 APERTURE END LIST*
D10*
%TO.P,D2,1,K*%
%TO.N,GND*%
X172475000Y-83500000D03*
D11*
%TO.P,D2,2,A*%
%TO.N,Net-(D2-A)*%
X175015000Y-83500000D03*
%TD*%
D12*
%TO.P,U2,1,SCL/VZ*%
%TO.N,Net-(U2-SCL{slash}VZ)*%
X171488100Y-100500000D03*
D13*
%TO.P,U2,2,SDA/PWM*%
%TO.N,Net-(U2-SDA{slash}PWM)*%
X174028100Y-103040000D03*
%TO.P,U2,3,VDD*%
%TO.N,+5V*%
X176568100Y-100500000D03*
%TO.P,U2,4,VSS*%
%TO.N,GND*%
X174028100Y-97960000D03*
%TD*%
D14*
%TO.P,U1,1,IN*%
%TO.N,+12V*%
X143920000Y-73000000D03*
D15*
%TO.P,U1,2,GND*%
%TO.N,GND*%
X146460000Y-73000000D03*
%TO.P,U1,3,OUT*%
%TO.N,+5V*%
X149000000Y-73000000D03*
%TD*%
D10*
%TO.P,D1,1,K*%
%TO.N,Net-(D1-K)*%
X121000000Y-130000000D03*
D11*
%TO.P,D1,2,A*%
%TO.N,Net-(D1-A)*%
X123540000Y-130000000D03*
%TD*%
D16*
%TO.P,R1,1*%
%TO.N,+12V*%
X115000000Y-121000000D03*
D17*
%TO.P,R1,2*%
%TO.N,Net-(D1-A)*%
X127700000Y-121000000D03*
%TD*%
D18*
%TO.P,BT1,1,+*%
%TO.N,+12V*%
X143835642Y-63000000D03*
D19*
%TO.P,BT1,2,-*%
%TO.N,GND*%
X148635642Y-63000000D03*
%TD*%
D20*
%TO.P,Q1,1,G*%
%TO.N,Net-(Q1-G)*%
X123920000Y-65000000D03*
D21*
%TO.P,Q1,2,D*%
%TO.N,Net-(D1-K)*%
X126460000Y-65000000D03*
%TO.P,Q1,3,S*%
%TO.N,GND*%
X129000000Y-65000000D03*
%TD*%
D22*
%TO.P,PE1,1*%
%TO.N,Net-(D1-K)*%
X118500000Y-89000000D03*
D23*
%TO.P,PE1,2*%
%TO.N,+12V*%
X125500000Y-89000000D03*
%TD*%
D22*
%TO.P,PE2,1*%
%TO.N,Net-(D1-K)*%
X118500000Y-100000000D03*
D23*
%TO.P,PE2,2*%
%TO.N,+12V*%
X125500000Y-100000000D03*
%TD*%
D24*
%TO.P,SW2,1,1*%
%TO.N,Net-(U4-IO5)*%
X170500000Y-114265000D03*
X177000000Y-114265000D03*
%TO.P,SW2,2,2*%
%TO.N,GND*%
X170500000Y-118765000D03*
X177000000Y-118765000D03*
%TD*%
%TO.P,SW1,1,1*%
%TO.N,Net-(U4-IO4)*%
X170500000Y-125500000D03*
X177000000Y-125500000D03*
%TO.P,SW1,2,2*%
%TO.N,GND*%
X170500000Y-130000000D03*
X177000000Y-130000000D03*
%TD*%
D20*
%TO.P,Q2,1,G*%
%TO.N,Net-(Q1-G)*%
X116420000Y-77000000D03*
D21*
%TO.P,Q2,2,D*%
%TO.N,Net-(D1-K)*%
X118960000Y-77000000D03*
%TO.P,Q2,3,S*%
%TO.N,GND*%
X121500000Y-77000000D03*
%TD*%
D22*
%TO.P,PE3,1*%
%TO.N,Net-(D1-K)*%
X118500000Y-112000000D03*
D23*
%TO.P,PE3,2*%
%TO.N,+12V*%
X125500000Y-112000000D03*
%TD*%
D25*
%TO.P,U4,J2_1,3V3*%
%TO.N,unconnected-(U4-3V3-PadJ2_1)*%
X133308142Y-87360000D03*
D26*
%TO.P,U4,J2_2,EN*%
%TO.N,unconnected-(U4-EN-PadJ2_2)*%
X133308142Y-89900000D03*
%TO.P,U4,J2_3,SENSOR_VP*%
%TO.N,unconnected-(U4-SENSOR_VP-PadJ2_3)*%
X133308142Y-92440000D03*
%TO.P,U4,J2_4,SENSOR_VN*%
%TO.N,unconnected-(U4-SENSOR_VN-PadJ2_4)*%
X133308142Y-94980000D03*
%TO.P,U4,J2_5,IO34*%
%TO.N,unconnected-(U4-IO34-PadJ2_5)*%
X133308142Y-97520000D03*
%TO.P,U4,J2_6,IO35*%
%TO.N,unconnected-(U4-IO35-PadJ2_6)*%
X133308142Y-100060000D03*
%TO.P,U4,J2_7,IO32*%
%TO.N,unconnected-(U4-IO32-PadJ2_7)*%
X133308142Y-102600000D03*
%TO.P,U4,J2_8,IO33*%
%TO.N,unconnected-(U4-IO33-PadJ2_8)*%
X133308142Y-105140000D03*
%TO.P,U4,J2_9,IO25*%
%TO.N,unconnected-(U4-IO25-PadJ2_9)*%
X133308142Y-107680000D03*
%TO.P,U4,J2_10,IO26*%
%TO.N,unconnected-(U4-IO26-PadJ2_10)*%
X133308142Y-110220000D03*
%TO.P,U4,J2_11,IO27*%
%TO.N,unconnected-(U4-IO27-PadJ2_11)*%
X133308142Y-112760000D03*
%TO.P,U4,J2_12,IO14*%
%TO.N,unconnected-(U4-IO14-PadJ2_12)*%
X133308142Y-115300000D03*
%TO.P,U4,J2_13,IO12*%
%TO.N,unconnected-(U4-IO12-PadJ2_13)*%
X133308142Y-117840000D03*
%TO.P,U4,J2_14,GND_J2_14*%
%TO.N,GND*%
X133308142Y-120380000D03*
%TO.P,U4,J2_15,IO13*%
%TO.N,unconnected-(U4-IO13-PadJ2_15)*%
X133308142Y-122920000D03*
%TO.P,U4,J2_16,SD2*%
%TO.N,unconnected-(U4-SD2-PadJ2_16)*%
X133308142Y-125460000D03*
%TO.P,U4,J2_17,SD3*%
%TO.N,unconnected-(U4-SD3-PadJ2_17)*%
X133308142Y-128000000D03*
%TO.P,U4,J2_18,CMD*%
%TO.N,unconnected-(U4-CMD-PadJ2_18)*%
X133308142Y-130540000D03*
%TO.P,U4,J2_19,EXT_5V*%
%TO.N,+5V*%
X133308142Y-133080000D03*
%TO.P,U4,J3_1,GND_J3_1*%
%TO.N,GND*%
X158708142Y-87360000D03*
%TO.P,U4,J3_2,IO23*%
%TO.N,Net-(U4-IO23)*%
X158708142Y-89900000D03*
%TO.P,U4,J3_3,IO22*%
%TO.N,Net-(U2-SCL{slash}VZ)*%
X158708142Y-92440000D03*
%TO.P,U4,J3_4,TXD0*%
%TO.N,unconnected-(U4-TXD0-PadJ3_4)*%
X158708142Y-94980000D03*
%TO.P,U4,J3_5,RXD0*%
%TO.N,unconnected-(U4-RXD0-PadJ3_5)*%
X158708142Y-97520000D03*
%TO.P,U4,J3_6,IO21*%
%TO.N,Net-(U2-SDA{slash}PWM)*%
X158708142Y-100060000D03*
%TO.P,U4,J3_7,GND_J3_7*%
%TO.N,GND*%
X158708142Y-102600000D03*
%TO.P,U4,J3_8,IO19*%
%TO.N,unconnected-(U4-IO19-PadJ3_8)*%
X158708142Y-105140000D03*
%TO.P,U4,J3_9,IO18*%
%TO.N,Net-(Q1-G)*%
X158708142Y-107680000D03*
%TO.P,U4,J3_10,IO5*%
%TO.N,Net-(U4-IO5)*%
X158708142Y-110220000D03*
%TO.P,U4,J3_11,IO17*%
%TO.N,unconnected-(U4-IO17-PadJ3_11)*%
X158708142Y-112760000D03*
%TO.P,U4,J3_12,IO16*%
%TO.N,unconnected-(U4-IO16-PadJ3_12)*%
X158708142Y-115300000D03*
%TO.P,U4,J3_13,IO4*%
%TO.N,Net-(U4-IO4)*%
X158708142Y-117840000D03*
%TO.P,U4,J3_14,IO0*%
%TO.N,unconnected-(U4-IO0-PadJ3_14)*%
X158708142Y-120380000D03*
%TO.P,U4,J3_15,IO2*%
%TO.N,unconnected-(U4-IO2-PadJ3_15)*%
X158708142Y-122920000D03*
%TO.P,U4,J3_16,IO15*%
%TO.N,unconnected-(U4-IO15-PadJ3_16)*%
X158708142Y-125460000D03*
%TO.P,U4,J3_17,SD1*%
%TO.N,unconnected-(U4-SD1-PadJ3_17)*%
X158708142Y-128000000D03*
%TO.P,U4,J3_18,SD0*%
%TO.N,unconnected-(U4-SD0-PadJ3_18)*%
X158708142Y-130540000D03*
%TO.P,U4,J3_19,CLK*%
%TO.N,unconnected-(U4-CLK-PadJ3_19)*%
X158708142Y-133080000D03*
%TD*%
D16*
%TO.P,R2,1*%
%TO.N,Net-(D2-A)*%
X160000000Y-67000000D03*
D17*
%TO.P,R2,2*%
%TO.N,Net-(U4-IO23)*%
X172700000Y-67000000D03*
%TD*%
D27*
%TO.N,+12V*%
X143835642Y-63000000D02*
X143835642Y-72915642D01*
X143835642Y-72915642D02*
X143920000Y-73000000D01*
%TO.N,GND*%
X144473142Y-109215000D02*
X133308142Y-120380000D01*
X158708142Y-102600000D02*
X160950000Y-104841858D01*
X160950000Y-104841858D02*
X160950000Y-109215000D01*
X160950000Y-109215000D02*
X170500000Y-118765000D01*
X160950000Y-109215000D02*
X144473142Y-109215000D01*
%TO.N,Net-(D1-K)*%
X118500000Y-112000000D02*
X118500000Y-127500000D01*
X118500000Y-127500000D02*
X121000000Y-130000000D01*
%TO.N,Net-(Q1-G)*%
X123920000Y-69500000D02*
X122710000Y-70710000D01*
X122710000Y-70710000D02*
X116420000Y-77000000D01*
X158708142Y-107680000D02*
X158708142Y-106708142D01*
X123920000Y-65000000D02*
X123920000Y-69500000D01*
X158708142Y-106708142D02*
X122710000Y-70710000D01*
%TO.N,Net-(U4-IO23)*%
X172700000Y-75908142D02*
X158708142Y-89900000D01*
X172700000Y-67000000D02*
X172700000Y-75908142D01*
%TO.N,Net-(U2-SCL{slash}VZ)*%
X158708142Y-92291858D02*
X159000000Y-92000000D01*
X166768142Y-100500000D02*
X158708142Y-92440000D01*
X171488100Y-100500000D02*
X166768142Y-100500000D01*
X158708142Y-92440000D02*
X158708142Y-92291858D01*
%TD*%
%TA.AperFunction,Conductor*%
%TO.N,+12V*%
G36*
X145437539Y-61019685D02*
G01*
X145483294Y-61072489D01*
X145494500Y-61124000D01*
X145494500Y-61498836D01*
X145474815Y-61565875D01*
X145422011Y-61611630D01*
X145352853Y-61621574D01*
X145289297Y-61592549D01*
X145282819Y-61586517D01*
X145203986Y-61507684D01*
X145054765Y-61415643D01*
X145054760Y-61415641D01*
X144888338Y-61360494D01*
X144888331Y-61360493D01*
X144785627Y-61350000D01*
X144085642Y-61350000D01*
X144085642Y-62509252D01*
X144047934Y-62487482D01*
X143908051Y-62450000D01*
X143763233Y-62450000D01*
X143623350Y-62487482D01*
X143585642Y-62509252D01*
X143585642Y-61350000D01*
X142885656Y-61350000D01*
X142782952Y-61360493D01*
X142782945Y-61360494D01*
X142616523Y-61415641D01*
X142616518Y-61415643D01*
X142467297Y-61507684D01*
X142343326Y-61631655D01*
X142251285Y-61780876D01*
X142251283Y-61780881D01*
X142196136Y-61947303D01*
X142196135Y-61947310D01*
X142185642Y-62050014D01*
X142185642Y-62750000D01*
X143344894Y-62750000D01*
X143323124Y-62787708D01*
X143285642Y-62927591D01*
X143285642Y-63072409D01*
X143323124Y-63212292D01*
X143344894Y-63250000D01*
X142185642Y-63250000D01*
X142185642Y-63949985D01*
X142196135Y-64052689D01*
X142196136Y-64052696D01*
X142251283Y-64219118D01*
X142251285Y-64219123D01*
X142343326Y-64368344D01*
X142467297Y-64492315D01*
X142616518Y-64584356D01*
X142616523Y-64584358D01*
X142782945Y-64639505D01*
X142782952Y-64639506D01*
X142885656Y-64649999D01*
X142885669Y-64650000D01*
X143585642Y-64650000D01*
X143585642Y-63490747D01*
X143623350Y-63512518D01*
X143763233Y-63550000D01*
X143908051Y-63550000D01*
X144047934Y-63512518D01*
X144085642Y-63490747D01*
X144085642Y-64650000D01*
X144785615Y-64650000D01*
X144785627Y-64649999D01*
X144888331Y-64639506D01*
X144888338Y-64639505D01*
X145054760Y-64584358D01*
X145054765Y-64584356D01*
X145203986Y-64492315D01*
X145282819Y-64413483D01*
X145344142Y-64379998D01*
X145413834Y-64384982D01*
X145469767Y-64426854D01*
X145494184Y-64492318D01*
X145494500Y-64501164D01*
X145494500Y-66937432D01*
X145494500Y-71409060D01*
X145494514Y-71412771D01*
X145494527Y-71414542D01*
X145494528Y-71414669D01*
X145494563Y-71418040D01*
X145494564Y-71418045D01*
X145516925Y-71559235D01*
X145517072Y-71560159D01*
X145517072Y-71560162D01*
X145537700Y-71626875D01*
X145537712Y-71626912D01*
X145537713Y-71626914D01*
X145564045Y-71682459D01*
X145569111Y-71714444D01*
X145575543Y-71746189D01*
X145574544Y-71748752D01*
X145574975Y-71751469D01*
X145561944Y-71781116D01*
X145550193Y-71811298D01*
X145547549Y-71813867D01*
X145546861Y-71815433D01*
X145524883Y-71835896D01*
X145515339Y-71842830D01*
X145449532Y-71866309D01*
X145381478Y-71850483D01*
X145332784Y-71800377D01*
X145326272Y-71785845D01*
X145315853Y-71757911D01*
X145315850Y-71757906D01*
X145229690Y-71642812D01*
X145229687Y-71642809D01*
X145114593Y-71556649D01*
X145114586Y-71556645D01*
X144979879Y-71506403D01*
X144979872Y-71506401D01*
X144920344Y-71500000D01*
X144170000Y-71500000D01*
X144170000Y-72509252D01*
X144132292Y-72487482D01*
X143992409Y-72450000D01*
X143847591Y-72450000D01*
X143707708Y-72487482D01*
X143670000Y-72509252D01*
X143670000Y-71500000D01*
X142919655Y-71500000D01*
X142860127Y-71506401D01*
X142860120Y-71506403D01*
X142725413Y-71556645D01*
X142725406Y-71556649D01*
X142610312Y-71642809D01*
X142610309Y-71642812D01*
X142524149Y-71757906D01*
X142524145Y-71757913D01*
X142473903Y-71892620D01*
X142473901Y-71892627D01*
X142467500Y-71952155D01*
X142467500Y-72750000D01*
X143429252Y-72750000D01*
X143407482Y-72787708D01*
X143370000Y-72927591D01*
X143370000Y-73072409D01*
X143407482Y-73212292D01*
X143429252Y-73250000D01*
X142467500Y-73250000D01*
X142467500Y-74047844D01*
X142473901Y-74107372D01*
X142473903Y-74107379D01*
X142524145Y-74242086D01*
X142524149Y-74242093D01*
X142610309Y-74357187D01*
X142610312Y-74357190D01*
X142725406Y-74443350D01*
X142725413Y-74443354D01*
X142860120Y-74493596D01*
X142860127Y-74493598D01*
X142919655Y-74499999D01*
X142919672Y-74500000D01*
X143670000Y-74500000D01*
X143670000Y-73490747D01*
X143707708Y-73512518D01*
X143847591Y-73550000D01*
X143992409Y-73550000D01*
X144132292Y-73512518D01*
X144170000Y-73490747D01*
X144170000Y-74500000D01*
X144920328Y-74500000D01*
X144920344Y-74499999D01*
X144979872Y-74493598D01*
X144979879Y-74493596D01*
X145114586Y-74443354D01*
X145114593Y-74443350D01*
X145229687Y-74357190D01*
X145229690Y-74357187D01*
X145315850Y-74242093D01*
X145315854Y-74242086D01*
X145326272Y-74214155D01*
X145341596Y-74193683D01*
X145353532Y-74171065D01*
X145362186Y-74166177D01*
X145368143Y-74158221D01*
X145392105Y-74149283D01*
X145414372Y-74136710D01*
X145424294Y-74137277D01*
X145433607Y-74133804D01*
X145458595Y-74139239D01*
X145484127Y-74140700D01*
X145497323Y-74147663D01*
X145501880Y-74148655D01*
X145515339Y-74157170D01*
X145522307Y-74162232D01*
X145524738Y-74163999D01*
X145567402Y-74219330D01*
X145573380Y-74288944D01*
X145564645Y-74315826D01*
X145534663Y-74381476D01*
X145514976Y-74448521D01*
X145494500Y-74590940D01*
X145494500Y-75336910D01*
X145474815Y-75403949D01*
X145447110Y-75434413D01*
X135922074Y-82918369D01*
X135857198Y-82944310D01*
X135788597Y-82931057D01*
X135757783Y-82908547D01*
X123646916Y-70797680D01*
X123613431Y-70736357D01*
X123618415Y-70666665D01*
X123646916Y-70622318D01*
X124278506Y-69990728D01*
X124278511Y-69990724D01*
X124288714Y-69980520D01*
X124288716Y-69980520D01*
X124400520Y-69868716D01*
X124479577Y-69731784D01*
X124520500Y-69579057D01*
X124520500Y-66546999D01*
X124540185Y-66479960D01*
X124592989Y-66434205D01*
X124644500Y-66422999D01*
X124890371Y-66422999D01*
X124890372Y-66422999D01*
X124949983Y-66416591D01*
X125084831Y-66366296D01*
X125200046Y-66280046D01*
X125286296Y-66164831D01*
X125307458Y-66108091D01*
X125349326Y-66052161D01*
X125414790Y-66027742D01*
X125483063Y-66042592D01*
X125511320Y-66063745D01*
X125532978Y-66085403D01*
X125714186Y-66217059D01*
X125804831Y-66263245D01*
X125913753Y-66318744D01*
X125913755Y-66318744D01*
X125913758Y-66318746D01*
X126126780Y-66387961D01*
X126348007Y-66423000D01*
X126348008Y-66423000D01*
X126571992Y-66423000D01*
X126571993Y-66423000D01*
X126793220Y-66387961D01*
X127006242Y-66318746D01*
X127205814Y-66217059D01*
X127387022Y-66085403D01*
X127545403Y-65927022D01*
X127629682Y-65811021D01*
X127685012Y-65768357D01*
X127754626Y-65762378D01*
X127816421Y-65794984D01*
X127830315Y-65811019D01*
X127914597Y-65927022D01*
X128072978Y-66085403D01*
X128254186Y-66217059D01*
X128344831Y-66263245D01*
X128453753Y-66318744D01*
X128453755Y-66318744D01*
X128453758Y-66318746D01*
X128666780Y-66387961D01*
X128888007Y-66423000D01*
X128888008Y-66423000D01*
X129111992Y-66423000D01*
X129111993Y-66423000D01*
X129333220Y-66387961D01*
X129546242Y-66318746D01*
X129745814Y-66217059D01*
X129927022Y-66085403D01*
X130085403Y-65927022D01*
X130217059Y-65745814D01*
X130318746Y-65546242D01*
X130387961Y-65333220D01*
X130423000Y-65111993D01*
X130423000Y-64888007D01*
X130387961Y-64666780D01*
X130318746Y-64453758D01*
X130318744Y-64453755D01*
X130318744Y-64453753D01*
X130217058Y-64254185D01*
X130085403Y-64072978D01*
X129927022Y-63914597D01*
X129745814Y-63782941D01*
X129546246Y-63681255D01*
X129333220Y-63612039D01*
X129257935Y-63600115D01*
X129111993Y-63577000D01*
X128888007Y-63577000D01*
X128777393Y-63594519D01*
X128666779Y-63612039D01*
X128453753Y-63681255D01*
X128254185Y-63782941D01*
X128182298Y-63835171D01*
X128072978Y-63914597D01*
X128072976Y-63914599D01*
X128072975Y-63914599D01*
X127914598Y-64072976D01*
X127830318Y-64188977D01*
X127774987Y-64231643D01*
X127705374Y-64237621D01*
X127643579Y-64205015D01*
X127629682Y-64188977D01*
X127577000Y-64116468D01*
X127545403Y-64072978D01*
X127387022Y-63914597D01*
X127205814Y-63782941D01*
X127006246Y-63681255D01*
X126793220Y-63612039D01*
X126717935Y-63600115D01*
X126571993Y-63577000D01*
X126348007Y-63577000D01*
X126237393Y-63594519D01*
X126126779Y-63612039D01*
X125913753Y-63681255D01*
X125714185Y-63782941D01*
X125642298Y-63835171D01*
X125532978Y-63914597D01*
X125532976Y-63914599D01*
X125532974Y-63914600D01*
X125511318Y-63936256D01*
X125449995Y-63969740D01*
X125380303Y-63964754D01*
X125324370Y-63922881D01*
X125307459Y-63891911D01*
X125286296Y-63835169D01*
X125286295Y-63835167D01*
X125286293Y-63835164D01*
X125200047Y-63719955D01*
X125200044Y-63719952D01*
X125084835Y-63633706D01*
X125084828Y-63633702D01*
X124949982Y-63583408D01*
X124949983Y-63583408D01*
X124890383Y-63577001D01*
X124890381Y-63577000D01*
X124890373Y-63577000D01*
X124890364Y-63577000D01*
X122949629Y-63577000D01*
X122949623Y-63577001D01*
X122890016Y-63583408D01*
X122755171Y-63633702D01*
X122755164Y-63633706D01*
X122639955Y-63719952D01*
X122639952Y-63719955D01*
X122553706Y-63835164D01*
X122553702Y-63835171D01*
X122503408Y-63970017D01*
X122497001Y-64029616D01*
X122497000Y-64029635D01*
X122497000Y-65970370D01*
X122497001Y-65970376D01*
X122503408Y-66029983D01*
X122553702Y-66164828D01*
X122553706Y-66164835D01*
X122639952Y-66280044D01*
X122639955Y-66280047D01*
X122755164Y-66366293D01*
X122755171Y-66366297D01*
X122800118Y-66383061D01*
X122890017Y-66416591D01*
X122949627Y-66423000D01*
X123195501Y-66422999D01*
X123262539Y-66442683D01*
X123308294Y-66495487D01*
X123319500Y-66546999D01*
X123319500Y-69199903D01*
X123299815Y-69266942D01*
X123283181Y-69287584D01*
X122341284Y-70229481D01*
X117030082Y-75540681D01*
X116968759Y-75574166D01*
X116942401Y-75577000D01*
X115449629Y-75577000D01*
X115449623Y-75577001D01*
X115390016Y-75583408D01*
X115255171Y-75633702D01*
X115255164Y-75633706D01*
X115139955Y-75719952D01*
X115139952Y-75719955D01*
X115053706Y-75835164D01*
X115053702Y-75835171D01*
X115003408Y-75970017D01*
X114997001Y-76029616D01*
X114997000Y-76029635D01*
X114997000Y-77970370D01*
X114997001Y-77970376D01*
X115003408Y-78029983D01*
X115053702Y-78164828D01*
X115053706Y-78164835D01*
X115139952Y-78280044D01*
X115139955Y-78280047D01*
X115255164Y-78366293D01*
X115255171Y-78366297D01*
X115390017Y-78416591D01*
X115390016Y-78416591D01*
X115396944Y-78417335D01*
X115449627Y-78423000D01*
X117390372Y-78422999D01*
X117449983Y-78416591D01*
X117584831Y-78366296D01*
X117700046Y-78280046D01*
X117786296Y-78164831D01*
X117807458Y-78108091D01*
X117849326Y-78052161D01*
X117914790Y-78027742D01*
X117983063Y-78042592D01*
X118011320Y-78063745D01*
X118032978Y-78085403D01*
X118214186Y-78217059D01*
X118308475Y-78265101D01*
X118413753Y-78318744D01*
X118413755Y-78318744D01*
X118413758Y-78318746D01*
X118626780Y-78387961D01*
X118848007Y-78423000D01*
X118848008Y-78423000D01*
X119071992Y-78423000D01*
X119071993Y-78423000D01*
X119293220Y-78387961D01*
X119506242Y-78318746D01*
X119705814Y-78217059D01*
X119887022Y-78085403D01*
X120045403Y-77927022D01*
X120129682Y-77811021D01*
X120185012Y-77768357D01*
X120254626Y-77762378D01*
X120316421Y-77794984D01*
X120330315Y-77811019D01*
X120414597Y-77927022D01*
X120572978Y-78085403D01*
X120754186Y-78217059D01*
X120848475Y-78265101D01*
X120953753Y-78318744D01*
X120953755Y-78318744D01*
X120953758Y-78318746D01*
X121166780Y-78387961D01*
X121388007Y-78423000D01*
X121388008Y-78423000D01*
X121611992Y-78423000D01*
X121611993Y-78423000D01*
X121833220Y-78387961D01*
X122046242Y-78318746D01*
X122245814Y-78217059D01*
X122427022Y-78085403D01*
X122585403Y-77927022D01*
X122717059Y-77745814D01*
X122818746Y-77546242D01*
X122887961Y-77333220D01*
X122923000Y-77111993D01*
X122923000Y-76888007D01*
X122887961Y-76666780D01*
X122818746Y-76453758D01*
X122818744Y-76453755D01*
X122818744Y-76453753D01*
X122717058Y-76254185D01*
X122585403Y-76072978D01*
X122427022Y-75914597D01*
X122245814Y-75782941D01*
X122046246Y-75681255D01*
X121833220Y-75612039D01*
X121797074Y-75606314D01*
X121611993Y-75577000D01*
X121388007Y-75577000D01*
X121277393Y-75594519D01*
X121166779Y-75612039D01*
X120953753Y-75681255D01*
X120754185Y-75782941D01*
X120682298Y-75835171D01*
X120572978Y-75914597D01*
X120572976Y-75914599D01*
X120572975Y-75914599D01*
X120414598Y-76072976D01*
X120330318Y-76188977D01*
X120274987Y-76231643D01*
X120205374Y-76237621D01*
X120143579Y-76205015D01*
X120129682Y-76188977D01*
X120096396Y-76143163D01*
X120045403Y-76072978D01*
X119887022Y-75914597D01*
X119705814Y-75782941D01*
X119506246Y-75681255D01*
X119293220Y-75612039D01*
X119257074Y-75606314D01*
X119071993Y-75577000D01*
X118991596Y-75577000D01*
X118924557Y-75557315D01*
X118878802Y-75504511D01*
X118868858Y-75435353D01*
X118897883Y-75371797D01*
X118903915Y-75365319D01*
X122622318Y-71646916D01*
X122683641Y-71613431D01*
X122753333Y-71618415D01*
X122797680Y-71646916D01*
X134785595Y-83634831D01*
X134819080Y-83696154D01*
X134814096Y-83765846D01*
X134774524Y-83820015D01*
X131999999Y-86000000D01*
X131999991Y-86000007D01*
X129000000Y-88999999D01*
X129000000Y-120195121D01*
X128980315Y-120262160D01*
X128927511Y-120307915D01*
X128858353Y-120317859D01*
X128794797Y-120288834D01*
X128775682Y-120268006D01*
X128691971Y-120152786D01*
X128547213Y-120008028D01*
X128381613Y-119887715D01*
X128381612Y-119887714D01*
X128381610Y-119887713D01*
X128301381Y-119846834D01*
X128199223Y-119794781D01*
X128004534Y-119731522D01*
X127829995Y-119703878D01*
X127802352Y-119699500D01*
X127597648Y-119699500D01*
X127573329Y-119703351D01*
X127395465Y-119731522D01*
X127200776Y-119794781D01*
X127018386Y-119887715D01*
X126852786Y-120008028D01*
X126708028Y-120152786D01*
X126587715Y-120318386D01*
X126494781Y-120500776D01*
X126431522Y-120695465D01*
X126399500Y-120897648D01*
X126399500Y-121102351D01*
X126431522Y-121304534D01*
X126494781Y-121499223D01*
X126523121Y-121554842D01*
X126587585Y-121681359D01*
X126587715Y-121681613D01*
X126708028Y-121847213D01*
X126852786Y-121991971D01*
X126973226Y-122079474D01*
X127018390Y-122112287D01*
X127134607Y-122171503D01*
X127200776Y-122205218D01*
X127200778Y-122205218D01*
X127200781Y-122205220D01*
X127234008Y-122216016D01*
X127395465Y-122268477D01*
X127419047Y-122272212D01*
X127597648Y-122300500D01*
X127597649Y-122300500D01*
X127802351Y-122300500D01*
X127802352Y-122300500D01*
X128004534Y-122268477D01*
X128199219Y-122205220D01*
X128381610Y-122112287D01*
X128474590Y-122044732D01*
X128547213Y-121991971D01*
X128547215Y-121991968D01*
X128547219Y-121991966D01*
X128691966Y-121847219D01*
X128775681Y-121731993D01*
X128831011Y-121689327D01*
X128900624Y-121683348D01*
X128962419Y-121715953D01*
X128996777Y-121776791D01*
X129000000Y-121804878D01*
X129000000Y-122876000D01*
X128980315Y-122943039D01*
X128927511Y-122988794D01*
X128876000Y-123000000D01*
X119224500Y-123000000D01*
X119157461Y-122980315D01*
X119111706Y-122927511D01*
X119100500Y-122876000D01*
X119100500Y-114374499D01*
X119120185Y-114307460D01*
X119172989Y-114261705D01*
X119224500Y-114250499D01*
X120050000Y-114250499D01*
X120050006Y-114250499D01*
X120152796Y-114239999D01*
X120319333Y-114184814D01*
X120468655Y-114092711D01*
X120592711Y-113968655D01*
X120684814Y-113819333D01*
X120739999Y-113652796D01*
X120750500Y-113550007D01*
X120750499Y-111852533D01*
X123250000Y-111852533D01*
X123250000Y-112147466D01*
X123250001Y-112147483D01*
X123288496Y-112439884D01*
X123288499Y-112439897D01*
X123364835Y-112724790D01*
X123364838Y-112724800D01*
X123477704Y-112997281D01*
X123477709Y-112997292D01*
X123625174Y-113252707D01*
X123625180Y-113252715D01*
X123741777Y-113404667D01*
X124803287Y-112343158D01*
X124813204Y-112367100D01*
X124898018Y-112494034D01*
X125005966Y-112601982D01*
X125132900Y-112686796D01*
X125156840Y-112696712D01*
X124095331Y-113758221D01*
X124247284Y-113874819D01*
X124247292Y-113874825D01*
X124502707Y-114022290D01*
X124502718Y-114022295D01*
X124775199Y-114135161D01*
X124775209Y-114135164D01*
X125060102Y-114211500D01*
X125060115Y-114211503D01*
X125352516Y-114249998D01*
X125352534Y-114250000D01*
X125647466Y-114250000D01*
X125647483Y-114249998D01*
X125939884Y-114211503D01*
X125939897Y-114211500D01*
X126224790Y-114135164D01*
X126224800Y-114135161D01*
X126497281Y-114022295D01*
X126497292Y-114022290D01*
X126752707Y-113874825D01*
X126752725Y-113874813D01*
X126904667Y-113758222D01*
X126904667Y-113758220D01*
X125843158Y-112696712D01*
X125867100Y-112686796D01*
X125994034Y-112601982D01*
X126101982Y-112494034D01*
X126186796Y-112367100D01*
X126196712Y-112343159D01*
X127258220Y-113404667D01*
X127258222Y-113404667D01*
X127374813Y-113252725D01*
X127374825Y-113252707D01*
X127522290Y-112997292D01*
X127522295Y-112997281D01*
X127635161Y-112724800D01*
X127635164Y-112724790D01*
X127711500Y-112439897D01*
X127711503Y-112439884D01*
X127749998Y-112147483D01*
X127750000Y-112147466D01*
X127750000Y-111852533D01*
X127749998Y-111852516D01*
X127711503Y-111560115D01*
X127711500Y-111560102D01*
X127635164Y-111275209D01*
X127635161Y-111275199D01*
X127522295Y-111002718D01*
X127522290Y-111002707D01*
X127374825Y-110747292D01*
X127374819Y-110747284D01*
X127258221Y-110595331D01*
X126196712Y-111656840D01*
X126186796Y-111632900D01*
X126101982Y-111505966D01*
X125994034Y-111398018D01*
X125867100Y-111313204D01*
X125843158Y-111303287D01*
X126904667Y-110241777D01*
X126752715Y-110125180D01*
X126752707Y-110125174D01*
X126497292Y-109977709D01*
X126497281Y-109977704D01*
X126224800Y-109864838D01*
X126224790Y-109864835D01*
X125939897Y-109788499D01*
X125939884Y-109788496D01*
X125647483Y-109750001D01*
X125647466Y-109750000D01*
X125352534Y-109750000D01*
X125352516Y-109750001D01*
X125060115Y-109788496D01*
X125060102Y-109788499D01*
X124775209Y-109864835D01*
X124775199Y-109864838D01*
X124502718Y-109977704D01*
X124502707Y-109977709D01*
X124247292Y-110125174D01*
X124247276Y-110125185D01*
X124095331Y-110241775D01*
X124095331Y-110241777D01*
X125156841Y-111303287D01*
X125132900Y-111313204D01*
X125005966Y-111398018D01*
X124898018Y-111505966D01*
X124813204Y-111632900D01*
X124803287Y-111656841D01*
X123741777Y-110595331D01*
X123741775Y-110595331D01*
X123625185Y-110747276D01*
X123625174Y-110747292D01*
X123477709Y-111002707D01*
X123477704Y-111002718D01*
X123364838Y-111275199D01*
X123364835Y-111275209D01*
X123288499Y-111560102D01*
X123288496Y-111560115D01*
X123250001Y-111852516D01*
X123250000Y-111852533D01*
X120750499Y-111852533D01*
X120750499Y-110449994D01*
X120739999Y-110347204D01*
X120684814Y-110180667D01*
X120592711Y-110031345D01*
X120468655Y-109907289D01*
X120319333Y-109815186D01*
X120152796Y-109760001D01*
X120152794Y-109760000D01*
X120050008Y-109749500D01*
X116950000Y-109749500D01*
X116949983Y-109749501D01*
X116847204Y-109760000D01*
X116847201Y-109760001D01*
X116680669Y-109815185D01*
X116680664Y-109815187D01*
X116531343Y-109907290D01*
X116407290Y-110031343D01*
X116315187Y-110180664D01*
X116315186Y-110180667D01*
X116260001Y-110347204D01*
X116260001Y-110347205D01*
X116260000Y-110347205D01*
X116249500Y-110449985D01*
X116249500Y-113549999D01*
X116249501Y-113550016D01*
X116260000Y-113652795D01*
X116260001Y-113652798D01*
X116294935Y-113758220D01*
X116315186Y-113819333D01*
X116407289Y-113968655D01*
X116531345Y-114092711D01*
X116680667Y-114184814D01*
X116847204Y-114239999D01*
X116949993Y-114250500D01*
X117775500Y-114250499D01*
X117842539Y-114270183D01*
X117888294Y-114322987D01*
X117899500Y-114374499D01*
X117899500Y-122876000D01*
X117879815Y-122943039D01*
X117827011Y-122988794D01*
X117775500Y-123000000D01*
X112124000Y-123000000D01*
X112056961Y-122980315D01*
X112011206Y-122927511D01*
X112000000Y-122876000D01*
X112000000Y-120897682D01*
X113700000Y-120897682D01*
X113700000Y-121102317D01*
X113732009Y-121304417D01*
X113795244Y-121499031D01*
X113888141Y-121681350D01*
X113888147Y-121681359D01*
X113920523Y-121725921D01*
X113920524Y-121725922D01*
X114600000Y-121046446D01*
X114600000Y-121052661D01*
X114627259Y-121154394D01*
X114679920Y-121245606D01*
X114754394Y-121320080D01*
X114845606Y-121372741D01*
X114947339Y-121400000D01*
X114953553Y-121400000D01*
X114274076Y-122079474D01*
X114318650Y-122111859D01*
X114500968Y-122204755D01*
X114695582Y-122267990D01*
X114897683Y-122300000D01*
X115102317Y-122300000D01*
X115304417Y-122267990D01*
X115499031Y-122204755D01*
X115681349Y-122111859D01*
X115725921Y-122079474D01*
X115046447Y-121400000D01*
X115052661Y-121400000D01*
X115154394Y-121372741D01*
X115245606Y-121320080D01*
X115320080Y-121245606D01*
X115372741Y-121154394D01*
X115400000Y-121052661D01*
X115400000Y-121046448D01*
X116079474Y-121725922D01*
X116079474Y-121725921D01*
X116111859Y-121681349D01*
X116204755Y-121499031D01*
X116267990Y-121304417D01*
X116300000Y-121102317D01*
X116300000Y-120897682D01*
X116267990Y-120695582D01*
X116204755Y-120500968D01*
X116111859Y-120318650D01*
X116079474Y-120274077D01*
X116079474Y-120274076D01*
X115400000Y-120953551D01*
X115400000Y-120947339D01*
X115372741Y-120845606D01*
X115320080Y-120754394D01*
X115245606Y-120679920D01*
X115154394Y-120627259D01*
X115052661Y-120600000D01*
X115046446Y-120600000D01*
X115725922Y-119920524D01*
X115725921Y-119920523D01*
X115681359Y-119888147D01*
X115681350Y-119888141D01*
X115499031Y-119795244D01*
X115304417Y-119732009D01*
X115102317Y-119700000D01*
X114897683Y-119700000D01*
X114695582Y-119732009D01*
X114500968Y-119795244D01*
X114318644Y-119888143D01*
X114274077Y-119920523D01*
X114274077Y-119920524D01*
X114953554Y-120600000D01*
X114947339Y-120600000D01*
X114845606Y-120627259D01*
X114754394Y-120679920D01*
X114679920Y-120754394D01*
X114627259Y-120845606D01*
X114600000Y-120947339D01*
X114600000Y-120953553D01*
X113920524Y-120274077D01*
X113920523Y-120274077D01*
X113888143Y-120318644D01*
X113795244Y-120500968D01*
X113732009Y-120695582D01*
X113700000Y-120897682D01*
X112000000Y-120897682D01*
X112000000Y-98449985D01*
X116249500Y-98449985D01*
X116249500Y-101549999D01*
X116249501Y-101550016D01*
X116260000Y-101652795D01*
X116260001Y-101652798D01*
X116315185Y-101819330D01*
X116315187Y-101819335D01*
X116343480Y-101865204D01*
X116407289Y-101968655D01*
X116531345Y-102092711D01*
X116680667Y-102184814D01*
X116847204Y-102239999D01*
X116949993Y-102250500D01*
X120050006Y-102250499D01*
X120152796Y-102239999D01*
X120319333Y-102184814D01*
X120468655Y-102092711D01*
X120592711Y-101968655D01*
X120684814Y-101819333D01*
X120739999Y-101652796D01*
X120750500Y-101550007D01*
X120750499Y-99852533D01*
X123250000Y-99852533D01*
X123250000Y-100147466D01*
X123250001Y-100147483D01*
X123288496Y-100439884D01*
X123288499Y-100439897D01*
X123364835Y-100724790D01*
X123364838Y-100724800D01*
X123477704Y-100997281D01*
X123477709Y-100997292D01*
X123625174Y-101252707D01*
X123625180Y-101252715D01*
X123741777Y-101404667D01*
X124803287Y-100343158D01*
X124813204Y-100367100D01*
X124898018Y-100494034D01*
X125005966Y-100601982D01*
X125132900Y-100686796D01*
X125156840Y-100696712D01*
X124095331Y-101758221D01*
X124247284Y-101874819D01*
X124247292Y-101874825D01*
X124502707Y-102022290D01*
X124502718Y-102022295D01*
X124775199Y-102135161D01*
X124775209Y-102135164D01*
X125060102Y-102211500D01*
X125060115Y-102211503D01*
X125352516Y-102249998D01*
X125352534Y-102250000D01*
X125647466Y-102250000D01*
X125647483Y-102249998D01*
X125939884Y-102211503D01*
X125939897Y-102211500D01*
X126224790Y-102135164D01*
X126224800Y-102135161D01*
X126497281Y-102022295D01*
X126497292Y-102022290D01*
X126752707Y-101874825D01*
X126752725Y-101874813D01*
X126904667Y-101758222D01*
X126904667Y-101758220D01*
X125843158Y-100696712D01*
X125867100Y-100686796D01*
X125994034Y-100601982D01*
X126101982Y-100494034D01*
X126186796Y-100367100D01*
X126196712Y-100343159D01*
X127258220Y-101404667D01*
X127258222Y-101404667D01*
X127374813Y-101252725D01*
X127374825Y-101252707D01*
X127522290Y-100997292D01*
X127522295Y-100997281D01*
X127635161Y-100724800D01*
X127635164Y-100724790D01*
X127711500Y-100439897D01*
X127711503Y-100439884D01*
X127749998Y-100147483D01*
X127750000Y-100147466D01*
X127750000Y-99852533D01*
X127749998Y-99852516D01*
X127711503Y-99560115D01*
X127711500Y-99560102D01*
X127635164Y-99275209D01*
X127635161Y-99275199D01*
X127522295Y-99002718D01*
X127522290Y-99002707D01*
X127374825Y-98747292D01*
X127374819Y-98747284D01*
X127258221Y-98595331D01*
X126196712Y-99656840D01*
X126186796Y-99632900D01*
X126101982Y-99505966D01*
X125994034Y-99398018D01*
X125867100Y-99313204D01*
X125843158Y-99303287D01*
X126904667Y-98241777D01*
X126752715Y-98125180D01*
X126752707Y-98125174D01*
X126497292Y-97977709D01*
X126497281Y-97977704D01*
X126224800Y-97864838D01*
X126224790Y-97864835D01*
X125939897Y-97788499D01*
X125939884Y-97788496D01*
X125647483Y-97750001D01*
X125647466Y-97750000D01*
X125352534Y-97750000D01*
X125352516Y-97750001D01*
X125060115Y-97788496D01*
X125060102Y-97788499D01*
X124775209Y-97864835D01*
X124775199Y-97864838D01*
X124502718Y-97977704D01*
X124502707Y-97977709D01*
X124247292Y-98125174D01*
X124247276Y-98125185D01*
X124095331Y-98241775D01*
X124095331Y-98241777D01*
X125156841Y-99303287D01*
X125132900Y-99313204D01*
X125005966Y-99398018D01*
X124898018Y-99505966D01*
X124813204Y-99632900D01*
X124803287Y-99656841D01*
X123741777Y-98595331D01*
X123741775Y-98595331D01*
X123625185Y-98747276D01*
X123625174Y-98747292D01*
X123477709Y-99002707D01*
X123477704Y-99002718D01*
X123364838Y-99275199D01*
X123364835Y-99275209D01*
X123288499Y-99560102D01*
X123288496Y-99560115D01*
X123250001Y-99852516D01*
X123250000Y-99852533D01*
X120750499Y-99852533D01*
X120750499Y-98449994D01*
X120739999Y-98347204D01*
X120725760Y-98304235D01*
X120720802Y-98289272D01*
X120684814Y-98180667D01*
X120592711Y-98031345D01*
X120468655Y-97907289D01*
X120319333Y-97815186D01*
X120152796Y-97760001D01*
X120152794Y-97760000D01*
X120050008Y-97749500D01*
X116950000Y-97749500D01*
X116949983Y-97749501D01*
X116847204Y-97760000D01*
X116847201Y-97760001D01*
X116680669Y-97815185D01*
X116680664Y-97815187D01*
X116531343Y-97907290D01*
X116407290Y-98031343D01*
X116315187Y-98180664D01*
X116315186Y-98180667D01*
X116260001Y-98347204D01*
X116260001Y-98347205D01*
X116260000Y-98347205D01*
X116249500Y-98449985D01*
X112000000Y-98449985D01*
X112000000Y-87449985D01*
X116249500Y-87449985D01*
X116249500Y-90549999D01*
X116249501Y-90550016D01*
X116260000Y-90652795D01*
X116260001Y-90652798D01*
X116294935Y-90758220D01*
X116315186Y-90819333D01*
X116407289Y-90968655D01*
X116531345Y-91092711D01*
X116680667Y-91184814D01*
X116847204Y-91239999D01*
X116949993Y-91250500D01*
X120050006Y-91250499D01*
X120152796Y-91239999D01*
X120319333Y-91184814D01*
X120468655Y-91092711D01*
X120592711Y-90968655D01*
X120684814Y-90819333D01*
X120739999Y-90652796D01*
X120750500Y-90550007D01*
X120750499Y-88852533D01*
X123250000Y-88852533D01*
X123250000Y-89147466D01*
X123250001Y-89147483D01*
X123288496Y-89439884D01*
X123288499Y-89439897D01*
X123364835Y-89724790D01*
X123364838Y-89724800D01*
X123477704Y-89997281D01*
X123477709Y-89997292D01*
X123625174Y-90252707D01*
X123625180Y-90252715D01*
X123741777Y-90404667D01*
X124803287Y-89343158D01*
X124813204Y-89367100D01*
X124898018Y-89494034D01*
X125005966Y-89601982D01*
X125132900Y-89686796D01*
X125156840Y-89696712D01*
X124095331Y-90758221D01*
X124247284Y-90874819D01*
X124247292Y-90874825D01*
X124502707Y-91022290D01*
X124502718Y-91022295D01*
X124775199Y-91135161D01*
X124775209Y-91135164D01*
X125060102Y-91211500D01*
X125060115Y-91211503D01*
X125352516Y-91249998D01*
X125352534Y-91250000D01*
X125647466Y-91250000D01*
X125647483Y-91249998D01*
X125939884Y-91211503D01*
X125939897Y-91211500D01*
X126224790Y-91135164D01*
X126224800Y-91135161D01*
X126497281Y-91022295D01*
X126497292Y-91022290D01*
X126752707Y-90874825D01*
X126752725Y-90874813D01*
X126904667Y-90758222D01*
X126904667Y-90758220D01*
X125843158Y-89696712D01*
X125867100Y-89686796D01*
X125994034Y-89601982D01*
X126101982Y-89494034D01*
X126186796Y-89367100D01*
X126196712Y-89343159D01*
X127258220Y-90404667D01*
X127258222Y-90404667D01*
X127374813Y-90252725D01*
X127374825Y-90252707D01*
X127522290Y-89997292D01*
X127522295Y-89997281D01*
X127635161Y-89724800D01*
X127635164Y-89724790D01*
X127711500Y-89439897D01*
X127711503Y-89439884D01*
X127749998Y-89147483D01*
X127750000Y-89147466D01*
X127750000Y-88852533D01*
X127749998Y-88852516D01*
X127711503Y-88560115D01*
X127711500Y-88560102D01*
X127635164Y-88275209D01*
X127635161Y-88275199D01*
X127522295Y-88002718D01*
X127522290Y-88002707D01*
X127374825Y-87747292D01*
X127374819Y-87747284D01*
X127258221Y-87595331D01*
X126196712Y-88656840D01*
X126186796Y-88632900D01*
X126101982Y-88505966D01*
X125994034Y-88398018D01*
X125867100Y-88313204D01*
X125843158Y-88303287D01*
X126904667Y-87241777D01*
X126752715Y-87125180D01*
X126752707Y-87125174D01*
X126497292Y-86977709D01*
X126497281Y-86977704D01*
X126224800Y-86864838D01*
X126224790Y-86864835D01*
X125939897Y-86788499D01*
X125939884Y-86788496D01*
X125647483Y-86750001D01*
X125647466Y-86750000D01*
X125352534Y-86750000D01*
X125352516Y-86750001D01*
X125060115Y-86788496D01*
X125060102Y-86788499D01*
X124775209Y-86864835D01*
X124775199Y-86864838D01*
X124502718Y-86977704D01*
X124502707Y-86977709D01*
X124247292Y-87125174D01*
X124247276Y-87125185D01*
X124095331Y-87241775D01*
X124095331Y-87241777D01*
X125156841Y-88303287D01*
X125132900Y-88313204D01*
X125005966Y-88398018D01*
X124898018Y-88505966D01*
X124813204Y-88632900D01*
X124803287Y-88656841D01*
X123741777Y-87595331D01*
X123741775Y-87595331D01*
X123625185Y-87747276D01*
X123625174Y-87747292D01*
X123477709Y-88002707D01*
X123477704Y-88002718D01*
X123364838Y-88275199D01*
X123364835Y-88275209D01*
X123288499Y-88560102D01*
X123288496Y-88560115D01*
X123250001Y-88852516D01*
X123250000Y-88852533D01*
X120750499Y-88852533D01*
X120750499Y-87449994D01*
X120739999Y-87347204D01*
X120684814Y-87180667D01*
X120592711Y-87031345D01*
X120468655Y-86907289D01*
X120338219Y-86826835D01*
X120319335Y-86815187D01*
X120319330Y-86815185D01*
X120317861Y-86814698D01*
X120152796Y-86760001D01*
X120152794Y-86760000D01*
X120050008Y-86749500D01*
X116950000Y-86749500D01*
X116949983Y-86749501D01*
X116847204Y-86760000D01*
X116847201Y-86760001D01*
X116680669Y-86815185D01*
X116680664Y-86815187D01*
X116531343Y-86907290D01*
X116407290Y-87031343D01*
X116315187Y-87180664D01*
X116315186Y-87180667D01*
X116260001Y-87347204D01*
X116260001Y-87347205D01*
X116260000Y-87347205D01*
X116249500Y-87449985D01*
X112000000Y-87449985D01*
X112000000Y-61661540D01*
X112019685Y-61594501D01*
X112030986Y-61579537D01*
X112094333Y-61507684D01*
X112308250Y-61265042D01*
X112313552Y-61259397D01*
X112536631Y-61036319D01*
X112597954Y-61002834D01*
X112624312Y-61000000D01*
X145370500Y-61000000D01*
X145437539Y-61019685D01*
G37*
%TD.AperFunction*%
%TD*%
%TA.AperFunction,Conductor*%
%TO.N,+5V*%
G36*
X179913970Y-61019685D02*
G01*
X179934609Y-61036317D01*
X179963681Y-61065389D01*
X179997166Y-61126711D01*
X180000000Y-61153069D01*
X180000000Y-133876000D01*
X179980315Y-133943039D01*
X179927511Y-133988794D01*
X179876000Y-134000000D01*
X159771930Y-134000000D01*
X159704891Y-133980315D01*
X159659136Y-133927511D01*
X159649192Y-133858353D01*
X159671613Y-133803114D01*
X159738320Y-133711300D01*
X159738319Y-133711300D01*
X159738323Y-133711296D01*
X159824396Y-133542368D01*
X159882984Y-133362055D01*
X159899460Y-133258022D01*
X159912642Y-133174800D01*
X159912642Y-132985199D01*
X159892036Y-132855097D01*
X159882984Y-132797945D01*
X159824396Y-132617632D01*
X159824394Y-132617629D01*
X159824394Y-132617627D01*
X159738322Y-132448703D01*
X159676698Y-132363885D01*
X159626883Y-132295321D01*
X159492821Y-132161259D01*
X159339438Y-132049819D01*
X159170510Y-131963746D01*
X159060281Y-131927930D01*
X159002607Y-131888493D01*
X158975409Y-131824135D01*
X158987324Y-131755288D01*
X159034568Y-131703813D01*
X159060280Y-131692070D01*
X159170510Y-131656254D01*
X159339438Y-131570181D01*
X159492821Y-131458741D01*
X159626883Y-131324679D01*
X159738323Y-131171296D01*
X159824396Y-131002368D01*
X159882984Y-130822055D01*
X159902234Y-130700512D01*
X159912642Y-130634800D01*
X159912642Y-130445199D01*
X159896165Y-130341171D01*
X159882984Y-130257945D01*
X159824396Y-130077632D01*
X159824394Y-130077629D01*
X159824394Y-130077627D01*
X159750871Y-129933331D01*
X159738322Y-129908703D01*
X159718850Y-129881902D01*
X168999500Y-129881902D01*
X168999500Y-130118097D01*
X169036446Y-130351368D01*
X169109433Y-130575996D01*
X169172878Y-130700512D01*
X169216657Y-130786433D01*
X169355483Y-130977510D01*
X169522490Y-131144517D01*
X169713567Y-131283343D01*
X169812991Y-131334002D01*
X169924003Y-131390566D01*
X169924005Y-131390566D01*
X169924008Y-131390568D01*
X170044412Y-131429689D01*
X170148631Y-131463553D01*
X170381903Y-131500500D01*
X170381908Y-131500500D01*
X170618097Y-131500500D01*
X170851368Y-131463553D01*
X170866184Y-131458739D01*
X171075992Y-131390568D01*
X171286433Y-131283343D01*
X171477510Y-131144517D01*
X171644517Y-130977510D01*
X171783343Y-130786433D01*
X171890568Y-130575992D01*
X171963553Y-130351368D01*
X171978350Y-130257945D01*
X172000500Y-130118097D01*
X172000500Y-129881902D01*
X175499500Y-129881902D01*
X175499500Y-130118097D01*
X175536446Y-130351368D01*
X175609433Y-130575996D01*
X175672878Y-130700512D01*
X175716657Y-130786433D01*
X175855483Y-130977510D01*
X176022490Y-131144517D01*
X176213567Y-131283343D01*
X176312991Y-131334002D01*
X176424003Y-131390566D01*
X176424005Y-131390566D01*
X176424008Y-131390568D01*
X176544412Y-131429689D01*
X176648631Y-131463553D01*
X176881903Y-131500500D01*
X176881908Y-131500500D01*
X177118097Y-131500500D01*
X177351368Y-131463553D01*
X177366184Y-131458739D01*
X177575992Y-131390568D01*
X177786433Y-131283343D01*
X177977510Y-131144517D01*
X178144517Y-130977510D01*
X178283343Y-130786433D01*
X178390568Y-130575992D01*
X178463553Y-130351368D01*
X178478350Y-130257945D01*
X178500500Y-130118097D01*
X178500500Y-129881902D01*
X178463553Y-129648631D01*
X178390566Y-129424003D01*
X178304895Y-129255866D01*
X178283343Y-129213567D01*
X178144517Y-129022490D01*
X177977510Y-128855483D01*
X177786433Y-128716657D01*
X177784590Y-128715718D01*
X177575996Y-128609433D01*
X177351368Y-128536446D01*
X177118097Y-128499500D01*
X177118092Y-128499500D01*
X176881908Y-128499500D01*
X176881903Y-128499500D01*
X176648631Y-128536446D01*
X176424003Y-128609433D01*
X176213566Y-128716657D01*
X176119943Y-128784679D01*
X176022490Y-128855483D01*
X176022488Y-128855485D01*
X176022487Y-128855485D01*
X175855485Y-129022487D01*
X175855485Y-129022488D01*
X175855483Y-129022490D01*
X175795862Y-129104550D01*
X175716657Y-129213566D01*
X175609433Y-129424003D01*
X175536446Y-129648631D01*
X175499500Y-129881902D01*
X172000500Y-129881902D01*
X171963553Y-129648631D01*
X171890566Y-129424003D01*
X171804895Y-129255866D01*
X171783343Y-129213567D01*
X171644517Y-129022490D01*
X171477510Y-128855483D01*
X171286433Y-128716657D01*
X171284590Y-128715718D01*
X171075996Y-128609433D01*
X170851368Y-128536446D01*
X170618097Y-128499500D01*
X170618092Y-128499500D01*
X170381908Y-128499500D01*
X170381903Y-128499500D01*
X170148631Y-128536446D01*
X169924003Y-128609433D01*
X169713566Y-128716657D01*
X169619943Y-128784679D01*
X169522490Y-128855483D01*
X169522488Y-128855485D01*
X169522487Y-128855485D01*
X169355485Y-129022487D01*
X169355485Y-129022488D01*
X169355483Y-129022490D01*
X169295862Y-129104550D01*
X169216657Y-129213566D01*
X169109433Y-129424003D01*
X169036446Y-129648631D01*
X168999500Y-129881902D01*
X159718850Y-129881902D01*
X159626883Y-129755321D01*
X159492821Y-129621259D01*
X159339438Y-129509819D01*
X159170510Y-129423746D01*
X159060281Y-129387930D01*
X159002607Y-129348493D01*
X158975409Y-129284135D01*
X158987324Y-129215288D01*
X159034568Y-129163813D01*
X159060280Y-129152070D01*
X159170510Y-129116254D01*
X159339438Y-129030181D01*
X159492821Y-128918741D01*
X159626883Y-128784679D01*
X159738323Y-128631296D01*
X159824396Y-128462368D01*
X159882984Y-128282055D01*
X159899460Y-128178022D01*
X159912642Y-128094800D01*
X159912642Y-127905199D01*
X159896165Y-127801171D01*
X159882984Y-127717945D01*
X159824396Y-127537632D01*
X159824394Y-127537629D01*
X159824394Y-127537627D01*
X159738322Y-127368703D01*
X159626883Y-127215321D01*
X159492821Y-127081259D01*
X159339438Y-126969819D01*
X159170510Y-126883746D01*
X159060281Y-126847930D01*
X159002607Y-126808493D01*
X158975409Y-126744135D01*
X158987324Y-126675288D01*
X159034568Y-126623813D01*
X159060280Y-126612070D01*
X159170510Y-126576254D01*
X159339438Y-126490181D01*
X159492821Y-126378741D01*
X159626883Y-126244679D01*
X159738323Y-126091296D01*
X159824396Y-125922368D01*
X159882984Y-125742055D01*
X159899460Y-125638022D01*
X159912642Y-125554800D01*
X159912642Y-125381902D01*
X168999500Y-125381902D01*
X168999500Y-125618097D01*
X169036446Y-125851368D01*
X169109433Y-126075996D01*
X169195382Y-126244679D01*
X169216657Y-126286433D01*
X169355483Y-126477510D01*
X169522490Y-126644517D01*
X169713567Y-126783343D01*
X169762927Y-126808493D01*
X169924003Y-126890566D01*
X169924005Y-126890566D01*
X169924008Y-126890568D01*
X170044412Y-126929689D01*
X170148631Y-126963553D01*
X170381903Y-127000500D01*
X170381908Y-127000500D01*
X170618097Y-127000500D01*
X170851368Y-126963553D01*
X171075992Y-126890568D01*
X171286433Y-126783343D01*
X171477510Y-126644517D01*
X171644517Y-126477510D01*
X171783343Y-126286433D01*
X171890568Y-126075992D01*
X171963553Y-125851368D01*
X172000500Y-125618097D01*
X172000500Y-125381902D01*
X175499500Y-125381902D01*
X175499500Y-125618097D01*
X175536446Y-125851368D01*
X175609433Y-126075996D01*
X175695382Y-126244679D01*
X175716657Y-126286433D01*
X175855483Y-126477510D01*
X176022490Y-126644517D01*
X176213567Y-126783343D01*
X176262927Y-126808493D01*
X176424003Y-126890566D01*
X176424005Y-126890566D01*
X176424008Y-126890568D01*
X176544412Y-126929689D01*
X176648631Y-126963553D01*
X176881903Y-127000500D01*
X176881908Y-127000500D01*
X177118097Y-127000500D01*
X177351368Y-126963553D01*
X177575992Y-126890568D01*
X177786433Y-126783343D01*
X177977510Y-126644517D01*
X178144517Y-126477510D01*
X178283343Y-126286433D01*
X178390568Y-126075992D01*
X178463553Y-125851368D01*
X178500500Y-125618097D01*
X178500500Y-125381902D01*
X178463553Y-125148631D01*
X178390566Y-124924003D01*
X178283342Y-124713566D01*
X178144517Y-124522490D01*
X177977510Y-124355483D01*
X177786433Y-124216657D01*
X177761857Y-124204135D01*
X177575996Y-124109433D01*
X177351368Y-124036446D01*
X177118097Y-123999500D01*
X177118092Y-123999500D01*
X176881908Y-123999500D01*
X176881903Y-123999500D01*
X176648631Y-124036446D01*
X176424003Y-124109433D01*
X176213566Y-124216657D01*
X176160104Y-124255500D01*
X176022490Y-124355483D01*
X176022488Y-124355485D01*
X176022487Y-124355485D01*
X175855485Y-124522487D01*
X175855485Y-124522488D01*
X175855483Y-124522490D01*
X175841846Y-124541260D01*
X175716657Y-124713566D01*
X175609433Y-124924003D01*
X175536446Y-125148631D01*
X175499500Y-125381902D01*
X172000500Y-125381902D01*
X171963553Y-125148631D01*
X171890566Y-124924003D01*
X171783342Y-124713566D01*
X171644517Y-124522490D01*
X171477510Y-124355483D01*
X171286433Y-124216657D01*
X171261857Y-124204135D01*
X171075996Y-124109433D01*
X170851368Y-124036446D01*
X170618097Y-123999500D01*
X170618092Y-123999500D01*
X170381908Y-123999500D01*
X170381903Y-123999500D01*
X170148631Y-124036446D01*
X169924003Y-124109433D01*
X169713566Y-124216657D01*
X169660104Y-124255500D01*
X169522490Y-124355483D01*
X169522488Y-124355485D01*
X169522487Y-124355485D01*
X169355485Y-124522487D01*
X169355485Y-124522488D01*
X169355483Y-124522490D01*
X169341846Y-124541260D01*
X169216657Y-124713566D01*
X169109433Y-124924003D01*
X169036446Y-125148631D01*
X168999500Y-125381902D01*
X159912642Y-125381902D01*
X159912642Y-125365199D01*
X159896165Y-125261171D01*
X159882984Y-125177945D01*
X159824396Y-124997632D01*
X159824394Y-124997629D01*
X159824394Y-124997627D01*
X159738322Y-124828703D01*
X159626883Y-124675321D01*
X159492821Y-124541259D01*
X159339438Y-124429819D01*
X159170510Y-124343746D01*
X159060281Y-124307930D01*
X159002607Y-124268493D01*
X158975409Y-124204135D01*
X158987324Y-124135288D01*
X159034568Y-124083813D01*
X159060280Y-124072070D01*
X159170510Y-124036254D01*
X159339438Y-123950181D01*
X159492821Y-123838741D01*
X159626883Y-123704679D01*
X159738323Y-123551296D01*
X159824396Y-123382368D01*
X159882984Y-123202055D01*
X159899460Y-123098022D01*
X159912642Y-123014800D01*
X159912642Y-122825199D01*
X159896165Y-122721171D01*
X159882984Y-122637945D01*
X159824396Y-122457632D01*
X159824394Y-122457629D01*
X159824394Y-122457627D01*
X159738322Y-122288703D01*
X159626883Y-122135321D01*
X159492821Y-122001259D01*
X159339438Y-121889819D01*
X159170510Y-121803746D01*
X159060281Y-121767930D01*
X159002607Y-121728493D01*
X158975409Y-121664135D01*
X158987324Y-121595288D01*
X159034568Y-121543813D01*
X159060280Y-121532070D01*
X159170510Y-121496254D01*
X159339438Y-121410181D01*
X159492821Y-121298741D01*
X159626883Y-121164679D01*
X159738323Y-121011296D01*
X159824396Y-120842368D01*
X159882984Y-120662055D01*
X159899460Y-120558022D01*
X159912642Y-120474800D01*
X159912642Y-120285199D01*
X159892110Y-120155566D01*
X159882984Y-120097945D01*
X159824396Y-119917632D01*
X159824394Y-119917629D01*
X159824394Y-119917627D01*
X159738322Y-119748703D01*
X159733823Y-119742511D01*
X159626883Y-119595321D01*
X159492821Y-119461259D01*
X159339438Y-119349819D01*
X159170510Y-119263746D01*
X159060281Y-119227930D01*
X159002607Y-119188493D01*
X158975409Y-119124135D01*
X158987324Y-119055288D01*
X159034568Y-119003813D01*
X159060280Y-118992070D01*
X159170510Y-118956254D01*
X159339438Y-118870181D01*
X159492821Y-118758741D01*
X159626883Y-118624679D01*
X159738323Y-118471296D01*
X159824396Y-118302368D01*
X159882984Y-118122055D01*
X159905710Y-117978566D01*
X159912642Y-117934800D01*
X159912642Y-117745199D01*
X159892889Y-117620483D01*
X159882984Y-117557945D01*
X159824396Y-117377632D01*
X159824394Y-117377629D01*
X159824394Y-117377627D01*
X159738322Y-117208703D01*
X159626883Y-117055321D01*
X159492821Y-116921259D01*
X159339438Y-116809819D01*
X159170510Y-116723746D01*
X159060281Y-116687930D01*
X159002607Y-116648493D01*
X158975409Y-116584135D01*
X158987324Y-116515288D01*
X159034568Y-116463813D01*
X159060280Y-116452070D01*
X159170510Y-116416254D01*
X159339438Y-116330181D01*
X159492821Y-116218741D01*
X159626883Y-116084679D01*
X159738323Y-115931296D01*
X159824396Y-115762368D01*
X159882984Y-115582055D01*
X159899460Y-115478022D01*
X159912642Y-115394800D01*
X159912642Y-115205199D01*
X159896165Y-115101171D01*
X159882984Y-115017945D01*
X159824396Y-114837632D01*
X159824394Y-114837629D01*
X159824394Y-114837627D01*
X159738322Y-114668703D01*
X159700298Y-114616368D01*
X159626883Y-114515321D01*
X159492821Y-114381259D01*
X159339438Y-114269819D01*
X159170510Y-114183746D01*
X159060281Y-114147930D01*
X159002607Y-114108493D01*
X158975409Y-114044135D01*
X158987324Y-113975288D01*
X159034568Y-113923813D01*
X159060280Y-113912070D01*
X159170510Y-113876254D01*
X159339438Y-113790181D01*
X159492821Y-113678741D01*
X159626883Y-113544679D01*
X159738323Y-113391296D01*
X159824396Y-113222368D01*
X159882984Y-113042055D01*
X159909532Y-112874433D01*
X159912642Y-112854800D01*
X159912642Y-112665199D01*
X159896165Y-112561171D01*
X159882984Y-112477945D01*
X159824396Y-112297632D01*
X159824394Y-112297629D01*
X159824394Y-112297627D01*
X159738322Y-112128703D01*
X159626883Y-111975321D01*
X159492821Y-111841259D01*
X159339438Y-111729819D01*
X159170510Y-111643746D01*
X159060281Y-111607930D01*
X159002607Y-111568493D01*
X158975409Y-111504135D01*
X158987324Y-111435288D01*
X159034568Y-111383813D01*
X159060280Y-111372070D01*
X159170510Y-111336254D01*
X159339438Y-111250181D01*
X159492821Y-111138741D01*
X159626883Y-111004679D01*
X159738323Y-110851296D01*
X159824396Y-110682368D01*
X159882984Y-110502055D01*
X159899460Y-110398022D01*
X159912642Y-110314800D01*
X159912642Y-110125198D01*
X159886303Y-109958897D01*
X159895258Y-109889604D01*
X159940254Y-109836152D01*
X160007006Y-109815513D01*
X160008776Y-109815500D01*
X160649903Y-109815500D01*
X160716942Y-109835185D01*
X160737584Y-109851819D01*
X169047200Y-118161435D01*
X169080685Y-118222758D01*
X169077450Y-118287433D01*
X169036447Y-118413628D01*
X168999500Y-118646902D01*
X168999500Y-118883097D01*
X169036446Y-119116368D01*
X169109433Y-119340996D01*
X169216657Y-119551433D01*
X169355483Y-119742510D01*
X169522490Y-119909517D01*
X169713567Y-120048343D01*
X169810916Y-120097945D01*
X169924003Y-120155566D01*
X169924005Y-120155566D01*
X169924008Y-120155568D01*
X170044412Y-120194689D01*
X170148631Y-120228553D01*
X170381903Y-120265500D01*
X170381908Y-120265500D01*
X170618097Y-120265500D01*
X170851368Y-120228553D01*
X171075992Y-120155568D01*
X171286433Y-120048343D01*
X171477510Y-119909517D01*
X171644517Y-119742510D01*
X171783343Y-119551433D01*
X171890568Y-119340992D01*
X171963553Y-119116368D01*
X171983240Y-118992069D01*
X172000500Y-118883097D01*
X172000500Y-118646902D01*
X175499500Y-118646902D01*
X175499500Y-118883097D01*
X175536446Y-119116368D01*
X175609433Y-119340996D01*
X175716657Y-119551433D01*
X175855483Y-119742510D01*
X176022490Y-119909517D01*
X176213567Y-120048343D01*
X176310916Y-120097945D01*
X176424003Y-120155566D01*
X176424005Y-120155566D01*
X176424008Y-120155568D01*
X176544412Y-120194689D01*
X176648631Y-120228553D01*
X176881903Y-120265500D01*
X176881908Y-120265500D01*
X177118097Y-120265500D01*
X177351368Y-120228553D01*
X177575992Y-120155568D01*
X177786433Y-120048343D01*
X177977510Y-119909517D01*
X178144517Y-119742510D01*
X178283343Y-119551433D01*
X178390568Y-119340992D01*
X178463553Y-119116368D01*
X178483240Y-118992069D01*
X178500500Y-118883097D01*
X178500500Y-118646902D01*
X178463553Y-118413631D01*
X178401534Y-118222758D01*
X178390568Y-118189008D01*
X178390566Y-118189005D01*
X178390566Y-118189003D01*
X178283342Y-117978566D01*
X178251541Y-117934796D01*
X178144517Y-117787490D01*
X177977510Y-117620483D01*
X177786433Y-117481657D01*
X177575996Y-117374433D01*
X177351368Y-117301446D01*
X177118097Y-117264500D01*
X177118092Y-117264500D01*
X176881908Y-117264500D01*
X176881903Y-117264500D01*
X176648631Y-117301446D01*
X176424003Y-117374433D01*
X176213566Y-117481657D01*
X176108566Y-117557945D01*
X176022490Y-117620483D01*
X176022488Y-117620485D01*
X176022487Y-117620485D01*
X175855485Y-117787487D01*
X175855485Y-117787488D01*
X175855483Y-117787490D01*
X175795862Y-117869550D01*
X175716657Y-117978566D01*
X175609433Y-118189003D01*
X175536446Y-118413631D01*
X175499500Y-118646902D01*
X172000500Y-118646902D01*
X171963553Y-118413631D01*
X171901534Y-118222758D01*
X171890568Y-118189008D01*
X171890566Y-118189005D01*
X171890566Y-118189003D01*
X171783342Y-117978566D01*
X171751541Y-117934796D01*
X171644517Y-117787490D01*
X171477510Y-117620483D01*
X171286433Y-117481657D01*
X171075996Y-117374433D01*
X170851368Y-117301446D01*
X170618097Y-117264500D01*
X170618092Y-117264500D01*
X170381908Y-117264500D01*
X170381903Y-117264500D01*
X170148628Y-117301447D01*
X170022433Y-117342450D01*
X169952592Y-117344445D01*
X169896435Y-117312200D01*
X166813952Y-114229717D01*
X166731137Y-114146902D01*
X168999500Y-114146902D01*
X168999500Y-114383097D01*
X169036446Y-114616368D01*
X169109433Y-114840996D01*
X169199594Y-115017945D01*
X169216657Y-115051433D01*
X169355483Y-115242510D01*
X169522490Y-115409517D01*
X169713567Y-115548343D01*
X169779721Y-115582050D01*
X169924003Y-115655566D01*
X169924005Y-115655566D01*
X169924008Y-115655568D01*
X170044412Y-115694689D01*
X170148631Y-115728553D01*
X170381903Y-115765500D01*
X170381908Y-115765500D01*
X170618097Y-115765500D01*
X170851368Y-115728553D01*
X171075992Y-115655568D01*
X171286433Y-115548343D01*
X171477510Y-115409517D01*
X171644517Y-115242510D01*
X171783343Y-115051433D01*
X171890568Y-114840992D01*
X171963553Y-114616368D01*
X171979557Y-114515321D01*
X172000500Y-114383097D01*
X172000500Y-114146902D01*
X175499500Y-114146902D01*
X175499500Y-114383097D01*
X175536446Y-114616368D01*
X175609433Y-114840996D01*
X175699594Y-115017945D01*
X175716657Y-115051433D01*
X175855483Y-115242510D01*
X176022490Y-115409517D01*
X176213567Y-115548343D01*
X176279721Y-115582050D01*
X176424003Y-115655566D01*
X176424005Y-115655566D01*
X176424008Y-115655568D01*
X176544412Y-115694689D01*
X176648631Y-115728553D01*
X176881903Y-115765500D01*
X176881908Y-115765500D01*
X177118097Y-115765500D01*
X177351368Y-115728553D01*
X177575992Y-115655568D01*
X177786433Y-115548343D01*
X177977510Y-115409517D01*
X178144517Y-115242510D01*
X178283343Y-115051433D01*
X178390568Y-114840992D01*
X178463553Y-114616368D01*
X178479557Y-114515321D01*
X178500500Y-114383097D01*
X178500500Y-114146902D01*
X178463553Y-113913631D01*
X178390566Y-113689003D01*
X178283342Y-113478566D01*
X178144517Y-113287490D01*
X177977510Y-113120483D01*
X177786433Y-112981657D01*
X177575996Y-112874433D01*
X177351368Y-112801446D01*
X177118097Y-112764500D01*
X177118092Y-112764500D01*
X176881908Y-112764500D01*
X176881903Y-112764500D01*
X176648631Y-112801446D01*
X176424003Y-112874433D01*
X176213566Y-112981657D01*
X176104550Y-113060862D01*
X176022490Y-113120483D01*
X176022488Y-113120485D01*
X176022487Y-113120485D01*
X175855485Y-113287487D01*
X175855485Y-113287488D01*
X175855483Y-113287490D01*
X175795862Y-113369550D01*
X175716657Y-113478566D01*
X175609433Y-113689003D01*
X175536446Y-113913631D01*
X175499500Y-114146902D01*
X172000500Y-114146902D01*
X171963553Y-113913631D01*
X171890566Y-113689003D01*
X171783342Y-113478566D01*
X171644517Y-113287490D01*
X171477510Y-113120483D01*
X171286433Y-112981657D01*
X171075996Y-112874433D01*
X170851368Y-112801446D01*
X170618097Y-112764500D01*
X170618092Y-112764500D01*
X170381908Y-112764500D01*
X170381903Y-112764500D01*
X170148631Y-112801446D01*
X169924003Y-112874433D01*
X169713566Y-112981657D01*
X169604550Y-113060862D01*
X169522490Y-113120483D01*
X169522488Y-113120485D01*
X169522487Y-113120485D01*
X169355485Y-113287487D01*
X169355485Y-113287488D01*
X169355483Y-113287490D01*
X169295862Y-113369550D01*
X169216657Y-113478566D01*
X169109433Y-113689003D01*
X169036446Y-113913631D01*
X168999500Y-114146902D01*
X166731137Y-114146902D01*
X165704720Y-113120485D01*
X161586819Y-109002583D01*
X161553334Y-108941260D01*
X161550500Y-108914902D01*
X161550500Y-104930917D01*
X161550501Y-104930904D01*
X161550501Y-104762803D01*
X161550501Y-104762801D01*
X161509577Y-104610073D01*
X161465709Y-104534092D01*
X161430520Y-104473142D01*
X161318716Y-104361338D01*
X161314385Y-104357007D01*
X161314374Y-104356997D01*
X159921704Y-102964327D01*
X159906794Y-102937022D01*
X172982600Y-102937022D01*
X172982600Y-103142977D01*
X173022776Y-103344953D01*
X173022778Y-103344961D01*
X173101590Y-103535232D01*
X173216003Y-103706463D01*
X173216009Y-103706471D01*
X173361628Y-103852090D01*
X173361636Y-103852096D01*
X173532867Y-103966509D01*
X173584585Y-103987931D01*
X173723139Y-104045322D01*
X173925122Y-104085499D01*
X173925125Y-104085500D01*
X173925127Y-104085500D01*
X174131075Y-104085500D01*
X174131076Y-104085499D01*
X174333061Y-104045322D01*
X174523330Y-103966510D01*
X174523330Y-103966509D01*
X174523332Y-103966509D01*
X174688921Y-103855866D01*
X174694568Y-103852093D01*
X174840193Y-103706468D01*
X174954610Y-103535230D01*
X175033422Y-103344961D01*
X175073600Y-103142973D01*
X175073600Y-102937027D01*
X175073600Y-102937024D01*
X175073599Y-102937022D01*
X175033423Y-102735046D01*
X175033422Y-102735039D01*
X174954610Y-102544770D01*
X174954609Y-102544767D01*
X174840196Y-102373536D01*
X174840190Y-102373528D01*
X174694571Y-102227909D01*
X174694563Y-102227903D01*
X174523332Y-102113490D01*
X174333061Y-102034678D01*
X174333053Y-102034676D01*
X174131076Y-101994500D01*
X174131073Y-101994500D01*
X173925127Y-101994500D01*
X173925124Y-101994500D01*
X173723146Y-102034676D01*
X173723138Y-102034678D01*
X173532867Y-102113490D01*
X173361636Y-102227903D01*
X173361628Y-102227909D01*
X173216009Y-102373528D01*
X173216003Y-102373536D01*
X173101590Y-102544767D01*
X173022778Y-102735038D01*
X173022776Y-102735046D01*
X172982600Y-102937022D01*
X159906794Y-102937022D01*
X159888219Y-102903004D01*
X159886912Y-102857252D01*
X159906267Y-102735046D01*
X159912642Y-102694800D01*
X159912642Y-102505199D01*
X159891787Y-102373528D01*
X159882984Y-102317945D01*
X159824396Y-102137632D01*
X159824394Y-102137629D01*
X159824394Y-102137627D01*
X159771937Y-102034676D01*
X159738323Y-101968704D01*
X159626883Y-101815321D01*
X159492821Y-101681259D01*
X159339438Y-101569819D01*
X159170510Y-101483746D01*
X159060281Y-101447930D01*
X159002607Y-101408493D01*
X158975409Y-101344135D01*
X158987324Y-101275288D01*
X159034568Y-101223813D01*
X159060280Y-101212070D01*
X159170510Y-101176254D01*
X159339438Y-101090181D01*
X159492821Y-100978741D01*
X159626883Y-100844679D01*
X159738323Y-100691296D01*
X159824396Y-100522368D01*
X159882984Y-100342055D01*
X159899460Y-100238022D01*
X159912642Y-100154800D01*
X159912642Y-99965199D01*
X159889460Y-99818833D01*
X159882984Y-99777945D01*
X159824396Y-99597632D01*
X159824394Y-99597629D01*
X159824394Y-99597627D01*
X159754732Y-99460909D01*
X159738323Y-99428704D01*
X159626883Y-99275321D01*
X159492821Y-99141259D01*
X159339438Y-99029819D01*
X159170510Y-98943746D01*
X159060281Y-98907930D01*
X159002607Y-98868493D01*
X158975409Y-98804135D01*
X158987324Y-98735288D01*
X159034568Y-98683813D01*
X159060280Y-98672070D01*
X159170510Y-98636254D01*
X159339438Y-98550181D01*
X159492821Y-98438741D01*
X159626883Y-98304679D01*
X159738323Y-98151296D01*
X159824396Y-97982368D01*
X159882984Y-97802055D01*
X159899460Y-97698022D01*
X159912642Y-97614800D01*
X159912642Y-97425199D01*
X159891787Y-97293528D01*
X159882984Y-97237945D01*
X159824396Y-97057632D01*
X159824394Y-97057629D01*
X159824394Y-97057627D01*
X159771937Y-96954676D01*
X159738323Y-96888704D01*
X159626883Y-96735321D01*
X159492821Y-96601259D01*
X159339438Y-96489819D01*
X159170510Y-96403746D01*
X159060281Y-96367930D01*
X159002607Y-96328493D01*
X158975409Y-96264135D01*
X158987324Y-96195288D01*
X159034568Y-96143813D01*
X159060280Y-96132070D01*
X159170510Y-96096254D01*
X159339438Y-96010181D01*
X159492821Y-95898741D01*
X159626883Y-95764679D01*
X159738323Y-95611296D01*
X159824396Y-95442368D01*
X159882984Y-95262055D01*
X159899460Y-95158022D01*
X159912642Y-95074800D01*
X159912642Y-94885199D01*
X159898672Y-94796998D01*
X159907626Y-94727705D01*
X159952623Y-94674253D01*
X160019374Y-94653613D01*
X160086688Y-94672338D01*
X160108826Y-94689919D01*
X166283281Y-100864374D01*
X166283291Y-100864385D01*
X166287621Y-100868715D01*
X166287622Y-100868716D01*
X166399426Y-100980520D01*
X166424483Y-100994986D01*
X166486237Y-101030639D01*
X166486239Y-101030641D01*
X166536355Y-101059576D01*
X166536357Y-101059577D01*
X166689084Y-101100500D01*
X166689085Y-101100500D01*
X170343525Y-101100500D01*
X170410564Y-101120185D01*
X170456319Y-101172989D01*
X170459707Y-101181167D01*
X170499302Y-101287328D01*
X170499306Y-101287335D01*
X170585552Y-101402544D01*
X170585555Y-101402547D01*
X170700764Y-101488793D01*
X170700771Y-101488797D01*
X170835617Y-101539091D01*
X170835616Y-101539091D01*
X170842544Y-101539835D01*
X170895227Y-101545500D01*
X172080972Y-101545499D01*
X172140583Y-101539091D01*
X172275431Y-101488796D01*
X172390646Y-101402546D01*
X172396283Y-101395016D01*
X176026635Y-101395016D01*
X176073100Y-101426063D01*
X176073113Y-101426070D01*
X176263280Y-101504839D01*
X176263292Y-101504842D01*
X176465172Y-101544999D01*
X176465175Y-101545000D01*
X176671025Y-101545000D01*
X176671027Y-101544999D01*
X176872907Y-101504842D01*
X176872919Y-101504839D01*
X177063086Y-101426070D01*
X177109562Y-101395015D01*
X176568101Y-100853553D01*
X176568100Y-100853553D01*
X176026635Y-101395016D01*
X172396283Y-101395016D01*
X172476896Y-101287331D01*
X172527191Y-101152483D01*
X172533600Y-101092873D01*
X172533599Y-100397072D01*
X175523100Y-100397072D01*
X175523100Y-100602927D01*
X175563257Y-100804807D01*
X175563260Y-100804819D01*
X175642030Y-100994989D01*
X175673083Y-101041462D01*
X176214546Y-100500000D01*
X176214546Y-100499999D01*
X176169127Y-100454580D01*
X176223100Y-100454580D01*
X176223100Y-100545420D01*
X176246611Y-100633165D01*
X176292031Y-100711835D01*
X176356265Y-100776069D01*
X176434935Y-100821489D01*
X176522680Y-100845000D01*
X176613520Y-100845000D01*
X176701265Y-100821489D01*
X176779935Y-100776069D01*
X176844169Y-100711835D01*
X176889589Y-100633165D01*
X176913100Y-100545420D01*
X176913100Y-100499999D01*
X176921653Y-100499999D01*
X176921653Y-100500000D01*
X177463115Y-101041462D01*
X177494170Y-100994986D01*
X177572939Y-100804819D01*
X177572942Y-100804807D01*
X177613099Y-100602927D01*
X177613100Y-100602925D01*
X177613100Y-100397074D01*
X177613099Y-100397072D01*
X177572942Y-100195192D01*
X177572939Y-100195180D01*
X177494170Y-100005013D01*
X177494163Y-100005000D01*
X177463116Y-99958535D01*
X176921653Y-100499999D01*
X176913100Y-100499999D01*
X176913100Y-100454580D01*
X176889589Y-100366835D01*
X176844169Y-100288165D01*
X176779935Y-100223931D01*
X176701265Y-100178511D01*
X176613520Y-100155000D01*
X176522680Y-100155000D01*
X176434935Y-100178511D01*
X176356265Y-100223931D01*
X176292031Y-100288165D01*
X176246611Y-100366835D01*
X176223100Y-100454580D01*
X176169127Y-100454580D01*
X175673083Y-99958535D01*
X175642031Y-100005010D01*
X175563259Y-100195184D01*
X175563257Y-100195192D01*
X175523100Y-100397072D01*
X172533599Y-100397072D01*
X172533599Y-99907128D01*
X172527191Y-99847517D01*
X172476896Y-99712669D01*
X172476892Y-99712664D01*
X172476892Y-99712663D01*
X172396282Y-99604983D01*
X176026635Y-99604983D01*
X176568100Y-100146446D01*
X176568101Y-100146446D01*
X177109562Y-99604983D01*
X177109562Y-99604982D01*
X177063089Y-99573930D01*
X176872919Y-99495160D01*
X176872907Y-99495157D01*
X176671026Y-99455000D01*
X176465174Y-99455000D01*
X176263292Y-99495157D01*
X176263284Y-99495159D01*
X176073110Y-99573931D01*
X176026635Y-99604983D01*
X172396282Y-99604983D01*
X172390647Y-99597455D01*
X172390644Y-99597452D01*
X172275435Y-99511206D01*
X172275428Y-99511202D01*
X172140582Y-99460908D01*
X172140583Y-99460908D01*
X172080983Y-99454501D01*
X172080981Y-99454500D01*
X172080973Y-99454500D01*
X172080964Y-99454500D01*
X170895229Y-99454500D01*
X170895223Y-99454501D01*
X170835616Y-99460908D01*
X170700771Y-99511202D01*
X170700764Y-99511206D01*
X170585555Y-99597452D01*
X170585552Y-99597455D01*
X170499306Y-99712664D01*
X170499302Y-99712671D01*
X170459707Y-99818833D01*
X170417836Y-99874767D01*
X170352372Y-99899184D01*
X170343525Y-99899500D01*
X167068239Y-99899500D01*
X167001200Y-99879815D01*
X166980558Y-99863181D01*
X164974399Y-97857022D01*
X172982600Y-97857022D01*
X172982600Y-98062977D01*
X173022776Y-98264953D01*
X173022778Y-98264961D01*
X173101590Y-98455232D01*
X173216003Y-98626463D01*
X173216009Y-98626471D01*
X173361628Y-98772090D01*
X173361636Y-98772096D01*
X173532867Y-98886509D01*
X173584585Y-98907931D01*
X173723139Y-98965322D01*
X173925122Y-99005499D01*
X173925125Y-99005500D01*
X173925127Y-99005500D01*
X174131075Y-99005500D01*
X174131076Y-99005499D01*
X174333061Y-98965322D01*
X174523330Y-98886510D01*
X174523330Y-98886509D01*
X174523332Y-98886509D01*
X174608375Y-98829684D01*
X174694568Y-98772093D01*
X174840193Y-98626468D01*
X174954610Y-98455230D01*
X175033422Y-98264961D01*
X175073600Y-98062973D01*
X175073600Y-97857027D01*
X175073600Y-97857024D01*
X175073599Y-97857022D01*
X175033423Y-97655046D01*
X175033422Y-97655039D01*
X174954610Y-97464770D01*
X174954609Y-97464767D01*
X174840196Y-97293536D01*
X174840190Y-97293528D01*
X174694571Y-97147909D01*
X174694563Y-97147903D01*
X174523332Y-97033490D01*
X174333061Y-96954678D01*
X174333053Y-96954676D01*
X174131076Y-96914500D01*
X174131073Y-96914500D01*
X173925127Y-96914500D01*
X173925124Y-96914500D01*
X173723146Y-96954676D01*
X173723138Y-96954678D01*
X173532867Y-97033490D01*
X173361636Y-97147903D01*
X173361628Y-97147909D01*
X173216009Y-97293528D01*
X173216003Y-97293536D01*
X173101590Y-97464767D01*
X173022778Y-97655038D01*
X173022776Y-97655046D01*
X172982600Y-97857022D01*
X164974399Y-97857022D01*
X159921704Y-92804327D01*
X159888219Y-92743004D01*
X159886912Y-92697252D01*
X159902162Y-92600960D01*
X159912642Y-92534800D01*
X159912642Y-92345199D01*
X159896165Y-92241171D01*
X159882984Y-92157945D01*
X159824396Y-91977632D01*
X159824394Y-91977629D01*
X159824394Y-91977627D01*
X159738322Y-91808703D01*
X159626883Y-91655321D01*
X159492821Y-91521259D01*
X159339438Y-91409819D01*
X159170510Y-91323746D01*
X159060281Y-91287930D01*
X159002607Y-91248493D01*
X158975409Y-91184135D01*
X158987324Y-91115288D01*
X159034568Y-91063813D01*
X159060280Y-91052070D01*
X159170510Y-91016254D01*
X159339438Y-90930181D01*
X159492821Y-90818741D01*
X159626883Y-90684679D01*
X159738323Y-90531296D01*
X159824396Y-90362368D01*
X159882984Y-90182055D01*
X159899460Y-90078022D01*
X159912642Y-89994800D01*
X159912642Y-89805199D01*
X159898058Y-89713123D01*
X159886912Y-89642747D01*
X159895866Y-89573457D01*
X159921701Y-89535674D01*
X166905241Y-82552135D01*
X171074500Y-82552135D01*
X171074500Y-84447870D01*
X171074501Y-84447876D01*
X171080908Y-84507483D01*
X171131202Y-84642328D01*
X171131206Y-84642335D01*
X171217452Y-84757544D01*
X171217455Y-84757547D01*
X171332664Y-84843793D01*
X171332671Y-84843797D01*
X171467517Y-84894091D01*
X171467516Y-84894091D01*
X171474444Y-84894835D01*
X171527127Y-84900500D01*
X173422872Y-84900499D01*
X173482483Y-84894091D01*
X173617331Y-84843796D01*
X173732546Y-84757546D01*
X173818796Y-84642331D01*
X173846429Y-84568243D01*
X173848601Y-84562420D01*
X173890471Y-84506486D01*
X173955936Y-84482068D01*
X174024209Y-84496919D01*
X174052464Y-84518071D01*
X174102636Y-84568243D01*
X174102641Y-84568247D01*
X174204603Y-84642326D01*
X174280978Y-84697815D01*
X174409375Y-84763237D01*
X174477393Y-84797895D01*
X174477396Y-84797896D01*
X174582221Y-84831955D01*
X174687049Y-84866015D01*
X174904778Y-84900500D01*
X174904779Y-84900500D01*
X175125221Y-84900500D01*
X175125222Y-84900500D01*
X175342951Y-84866015D01*
X175552606Y-84797895D01*
X175749022Y-84697815D01*
X175927365Y-84568242D01*
X176083242Y-84412365D01*
X176212815Y-84234022D01*
X176312895Y-84037606D01*
X176381015Y-83827951D01*
X176415500Y-83610222D01*
X176415500Y-83389778D01*
X176381015Y-83172049D01*
X176312895Y-82962394D01*
X176312895Y-82962393D01*
X176278237Y-82894375D01*
X176212815Y-82765978D01*
X176154501Y-82685715D01*
X176083247Y-82587641D01*
X176083243Y-82587636D01*
X175927363Y-82431756D01*
X175927358Y-82431752D01*
X175749025Y-82302187D01*
X175749024Y-82302186D01*
X175749022Y-82302185D01*
X175631791Y-82242452D01*
X175552606Y-82202104D01*
X175552603Y-82202103D01*
X175342952Y-82133985D01*
X175234086Y-82116742D01*
X175125222Y-82099500D01*
X174904778Y-82099500D01*
X174832201Y-82110995D01*
X174687047Y-82133985D01*
X174477396Y-82202103D01*
X174477393Y-82202104D01*
X174280974Y-82302187D01*
X174102641Y-82431752D01*
X174102636Y-82431756D01*
X174052463Y-82481929D01*
X173991140Y-82515413D01*
X173921448Y-82510428D01*
X173865515Y-82468557D01*
X173848601Y-82437580D01*
X173818797Y-82357671D01*
X173818793Y-82357664D01*
X173732547Y-82242455D01*
X173732544Y-82242452D01*
X173617335Y-82156206D01*
X173617328Y-82156202D01*
X173482482Y-82105908D01*
X173482483Y-82105908D01*
X173422883Y-82099501D01*
X173422881Y-82099500D01*
X173422873Y-82099500D01*
X173422864Y-82099500D01*
X171527129Y-82099500D01*
X171527123Y-82099501D01*
X171467516Y-82105908D01*
X171332671Y-82156202D01*
X171332664Y-82156206D01*
X171217455Y-82242452D01*
X171217452Y-82242455D01*
X171131206Y-82357664D01*
X171131202Y-82357671D01*
X171080908Y-82492517D01*
X171074501Y-82552116D01*
X171074500Y-82552135D01*
X166905241Y-82552135D01*
X173058506Y-76398870D01*
X173058511Y-76398866D01*
X173068714Y-76388662D01*
X173068716Y-76388662D01*
X173180520Y-76276858D01*
X173259577Y-76139926D01*
X173300500Y-75987199D01*
X173300500Y-68229601D01*
X173320185Y-68162562D01*
X173368206Y-68119116D01*
X173381610Y-68112287D01*
X173547219Y-67991966D01*
X173691966Y-67847219D01*
X173691968Y-67847215D01*
X173691971Y-67847213D01*
X173751701Y-67765000D01*
X173812287Y-67681610D01*
X173905220Y-67499219D01*
X173968477Y-67304534D01*
X174000500Y-67102352D01*
X174000500Y-66897648D01*
X173968477Y-66695466D01*
X173905220Y-66500781D01*
X173905218Y-66500778D01*
X173905218Y-66500776D01*
X173871503Y-66434607D01*
X173812287Y-66318390D01*
X173804556Y-66307749D01*
X173691971Y-66152786D01*
X173547213Y-66008028D01*
X173381613Y-65887715D01*
X173381612Y-65887714D01*
X173381610Y-65887713D01*
X173324653Y-65858691D01*
X173199223Y-65794781D01*
X173004534Y-65731522D01*
X172829995Y-65703878D01*
X172802352Y-65699500D01*
X172597648Y-65699500D01*
X172573329Y-65703351D01*
X172395465Y-65731522D01*
X172200776Y-65794781D01*
X172018386Y-65887715D01*
X171852786Y-66008028D01*
X171708028Y-66152786D01*
X171587715Y-66318386D01*
X171494781Y-66500776D01*
X171431522Y-66695465D01*
X171399500Y-66897648D01*
X171399500Y-67102351D01*
X171431522Y-67304534D01*
X171494781Y-67499223D01*
X171587715Y-67681613D01*
X171708028Y-67847213D01*
X171708034Y-67847219D01*
X171852781Y-67991966D01*
X172018390Y-68112287D01*
X172031793Y-68119116D01*
X172082589Y-68167088D01*
X172099500Y-68229601D01*
X172099500Y-75608044D01*
X172079815Y-75675083D01*
X172063181Y-75695725D01*
X160108826Y-87650079D01*
X160047503Y-87683564D01*
X159977811Y-87678580D01*
X159921878Y-87636708D01*
X159897461Y-87571244D01*
X159898672Y-87542999D01*
X159912642Y-87454799D01*
X159912642Y-87265199D01*
X159896165Y-87161171D01*
X159882984Y-87077945D01*
X159824396Y-86897632D01*
X159824394Y-86897629D01*
X159824394Y-86897627D01*
X159738322Y-86728703D01*
X159626883Y-86575321D01*
X159492821Y-86441259D01*
X159339438Y-86329819D01*
X159170514Y-86243747D01*
X159112047Y-86224750D01*
X158990197Y-86185158D01*
X158990193Y-86185157D01*
X158990192Y-86185157D01*
X158802942Y-86155500D01*
X158802938Y-86155500D01*
X158613346Y-86155500D01*
X158613342Y-86155500D01*
X158426091Y-86185157D01*
X158426088Y-86185157D01*
X158426087Y-86185158D01*
X158367624Y-86204153D01*
X158245769Y-86243747D01*
X158076845Y-86329819D01*
X157923461Y-86441260D01*
X157789402Y-86575319D01*
X157677961Y-86728703D01*
X157591889Y-86897627D01*
X157533299Y-87077949D01*
X157503642Y-87265199D01*
X157503642Y-87454800D01*
X157522085Y-87571244D01*
X157533300Y-87642055D01*
X157572892Y-87763905D01*
X157591889Y-87822372D01*
X157677961Y-87991296D01*
X157789401Y-88144679D01*
X157923463Y-88278741D01*
X158076846Y-88390181D01*
X158156657Y-88430846D01*
X158245769Y-88476252D01*
X158245771Y-88476252D01*
X158245774Y-88476254D01*
X158356002Y-88512069D01*
X158413676Y-88551507D01*
X158440874Y-88615866D01*
X158428959Y-88684712D01*
X158381715Y-88736188D01*
X158356003Y-88747929D01*
X158313980Y-88761583D01*
X158245769Y-88783747D01*
X158076845Y-88869819D01*
X157923461Y-88981260D01*
X157789402Y-89115319D01*
X157677961Y-89268703D01*
X157591889Y-89437627D01*
X157533299Y-89617949D01*
X157503642Y-89805199D01*
X157503642Y-89994800D01*
X157533299Y-90182050D01*
X157533300Y-90182055D01*
X157572892Y-90303905D01*
X157591889Y-90362372D01*
X157677961Y-90531296D01*
X157789401Y-90684679D01*
X157923463Y-90818741D01*
X158076846Y-90930181D01*
X158156657Y-90970846D01*
X158245769Y-91016252D01*
X158245771Y-91016252D01*
X158245774Y-91016254D01*
X158356002Y-91052069D01*
X158413676Y-91091507D01*
X158440874Y-91155866D01*
X158428959Y-91224712D01*
X158381715Y-91276188D01*
X158356003Y-91287929D01*
X158313980Y-91301583D01*
X158245769Y-91323747D01*
X158076845Y-91409819D01*
X157923461Y-91521260D01*
X157789402Y-91655319D01*
X157677961Y-91808703D01*
X157591889Y-91977627D01*
X157533299Y-92157949D01*
X157503642Y-92345199D01*
X157503642Y-92534800D01*
X157529371Y-92697248D01*
X157533300Y-92722055D01*
X157540107Y-92743004D01*
X157591889Y-92902372D01*
X157677961Y-93071296D01*
X157789401Y-93224679D01*
X157923463Y-93358741D01*
X158076846Y-93470181D01*
X158156657Y-93510846D01*
X158245769Y-93556252D01*
X158245771Y-93556252D01*
X158245774Y-93556254D01*
X158356002Y-93592069D01*
X158413676Y-93631507D01*
X158440874Y-93695866D01*
X158428959Y-93764712D01*
X158381715Y-93816188D01*
X158356003Y-93827929D01*
X158313980Y-93841583D01*
X158245769Y-93863747D01*
X158076845Y-93949819D01*
X157923461Y-94061260D01*
X157789402Y-94195319D01*
X157677961Y-94348703D01*
X157591889Y-94517627D01*
X157533299Y-94697949D01*
X157503642Y-94885199D01*
X157503642Y-95074800D01*
X157533299Y-95262050D01*
X157533300Y-95262055D01*
X157572892Y-95383905D01*
X157591889Y-95442372D01*
X157677961Y-95611296D01*
X157789401Y-95764679D01*
X157923463Y-95898741D01*
X158076846Y-96010181D01*
X158156657Y-96050846D01*
X158245769Y-96096252D01*
X158245771Y-96096252D01*
X158245774Y-96096254D01*
X158356002Y-96132069D01*
X158413676Y-96171507D01*
X158440874Y-96235866D01*
X158428959Y-96304712D01*
X158381715Y-96356188D01*
X158356003Y-96367929D01*
X158313980Y-96381583D01*
X158245769Y-96403747D01*
X158076845Y-96489819D01*
X157923461Y-96601260D01*
X157789402Y-96735319D01*
X157677961Y-96888703D01*
X157591889Y-97057627D01*
X157533299Y-97237949D01*
X157503642Y-97425199D01*
X157503642Y-97614800D01*
X157533299Y-97802050D01*
X157533300Y-97802055D01*
X157551160Y-97857022D01*
X157591889Y-97982372D01*
X157632958Y-98062973D01*
X157677961Y-98151296D01*
X157789401Y-98304679D01*
X157923463Y-98438741D01*
X158076846Y-98550181D01*
X158156657Y-98590846D01*
X158245769Y-98636252D01*
X158245771Y-98636252D01*
X158245774Y-98636254D01*
X158356002Y-98672069D01*
X158413676Y-98711507D01*
X158440874Y-98775866D01*
X158428959Y-98844712D01*
X158381715Y-98896188D01*
X158356003Y-98907929D01*
X158313980Y-98921583D01*
X158245769Y-98943747D01*
X158076845Y-99029819D01*
X157923461Y-99141260D01*
X157789402Y-99275319D01*
X157677961Y-99428703D01*
X157591889Y-99597627D01*
X157533299Y-99777949D01*
X157503642Y-99965199D01*
X157503642Y-100154800D01*
X157524765Y-100288165D01*
X157533300Y-100342055D01*
X157551177Y-100397074D01*
X157591889Y-100522372D01*
X157677961Y-100691296D01*
X157789401Y-100844679D01*
X157923463Y-100978741D01*
X158076846Y-101090181D01*
X158135732Y-101120185D01*
X158245769Y-101176252D01*
X158245771Y-101176252D01*
X158245774Y-101176254D01*
X158356002Y-101212069D01*
X158413676Y-101251507D01*
X158440874Y-101315866D01*
X158428959Y-101384712D01*
X158381715Y-101436188D01*
X158356003Y-101447929D01*
X158313980Y-101461583D01*
X158245769Y-101483747D01*
X158076845Y-101569819D01*
X157923461Y-101681260D01*
X157789402Y-101815319D01*
X157677961Y-101968703D01*
X157591889Y-102137627D01*
X157533299Y-102317949D01*
X157503642Y-102505199D01*
X157503642Y-102694800D01*
X157529371Y-102857248D01*
X157533300Y-102882055D01*
X157540107Y-102903004D01*
X157591889Y-103062372D01*
X157632958Y-103142973D01*
X157677961Y-103231296D01*
X157789401Y-103384679D01*
X157923463Y-103518741D01*
X158076846Y-103630181D01*
X158156657Y-103670846D01*
X158245769Y-103716252D01*
X158245771Y-103716252D01*
X158245774Y-103716254D01*
X158356002Y-103752069D01*
X158413676Y-103791507D01*
X158440874Y-103855866D01*
X158428959Y-103924712D01*
X158381715Y-103976188D01*
X158356003Y-103987929D01*
X158313980Y-104001583D01*
X158245769Y-104023747D01*
X158076845Y-104109819D01*
X157923461Y-104221260D01*
X157789402Y-104355319D01*
X157677961Y-104508703D01*
X157647424Y-104568636D01*
X157599449Y-104619432D01*
X157531628Y-104636227D01*
X157465493Y-104613689D01*
X157449258Y-104600022D01*
X146036319Y-93187083D01*
X146002834Y-93125760D01*
X146000000Y-93099402D01*
X146000000Y-74590939D01*
X146019685Y-74523900D01*
X146072489Y-74478145D01*
X146141647Y-74468201D01*
X146143295Y-74468450D01*
X146345646Y-74500500D01*
X146345647Y-74500500D01*
X146574353Y-74500500D01*
X146574354Y-74500500D01*
X146800245Y-74464722D01*
X146800248Y-74464721D01*
X146800249Y-74464721D01*
X147017755Y-74394049D01*
X147017755Y-74394048D01*
X147017758Y-74394048D01*
X147221538Y-74290217D01*
X147406566Y-74155786D01*
X147568286Y-73994066D01*
X147629992Y-73909134D01*
X147685319Y-73866470D01*
X147754932Y-73860491D01*
X147816727Y-73893096D01*
X147830626Y-73909135D01*
X147892097Y-73993741D01*
X147892097Y-73993742D01*
X148053757Y-74155402D01*
X148238723Y-74289788D01*
X148442429Y-74393582D01*
X148659871Y-74464234D01*
X148750000Y-74478509D01*
X148750000Y-73490747D01*
X148787708Y-73512518D01*
X148927591Y-73550000D01*
X149072409Y-73550000D01*
X149212292Y-73512518D01*
X149250000Y-73490747D01*
X149250000Y-74478508D01*
X149340128Y-74464234D01*
X149557570Y-74393582D01*
X149761276Y-74289788D01*
X149946242Y-74155402D01*
X150107902Y-73993742D01*
X150242288Y-73808776D01*
X150346082Y-73605070D01*
X150416734Y-73387628D01*
X150438532Y-73250000D01*
X149490748Y-73250000D01*
X149512518Y-73212292D01*
X149550000Y-73072409D01*
X149550000Y-72927591D01*
X149512518Y-72787708D01*
X149490748Y-72750000D01*
X150438532Y-72750000D01*
X150416734Y-72612371D01*
X150346082Y-72394929D01*
X150242288Y-72191223D01*
X150107902Y-72006257D01*
X149946242Y-71844597D01*
X149761276Y-71710211D01*
X149557568Y-71606417D01*
X149340124Y-71535765D01*
X149250000Y-71521490D01*
X149250000Y-72509252D01*
X149212292Y-72487482D01*
X149072409Y-72450000D01*
X148927591Y-72450000D01*
X148787708Y-72487482D01*
X148750000Y-72509252D01*
X148750000Y-71521490D01*
X148749999Y-71521490D01*
X148659875Y-71535765D01*
X148442431Y-71606417D01*
X148238723Y-71710211D01*
X148053757Y-71844597D01*
X147892097Y-72006257D01*
X147830627Y-72090864D01*
X147775297Y-72133529D01*
X147705684Y-72139508D01*
X147643889Y-72106902D01*
X147629991Y-72090864D01*
X147568286Y-72005934D01*
X147406566Y-71844214D01*
X147221538Y-71709783D01*
X147017755Y-71605950D01*
X146800248Y-71535278D01*
X146630826Y-71508444D01*
X146574354Y-71499500D01*
X146345646Y-71499500D01*
X146272049Y-71511156D01*
X146143398Y-71531533D01*
X146074104Y-71522578D01*
X146020652Y-71477582D01*
X146000013Y-71410831D01*
X146000000Y-71409060D01*
X146000000Y-66897648D01*
X158699500Y-66897648D01*
X158699500Y-67102351D01*
X158731522Y-67304534D01*
X158794781Y-67499223D01*
X158887715Y-67681613D01*
X159008028Y-67847213D01*
X159152786Y-67991971D01*
X159263371Y-68072314D01*
X159318390Y-68112287D01*
X159399499Y-68153614D01*
X159500776Y-68205218D01*
X159500778Y-68205218D01*
X159500781Y-68205220D01*
X159575818Y-68229601D01*
X159695465Y-68268477D01*
X159796557Y-68284488D01*
X159897648Y-68300500D01*
X159897649Y-68300500D01*
X160102351Y-68300500D01*
X160102352Y-68300500D01*
X160304534Y-68268477D01*
X160499219Y-68205220D01*
X160681610Y-68112287D01*
X160774590Y-68044732D01*
X160847213Y-67991971D01*
X160847215Y-67991968D01*
X160847219Y-67991966D01*
X160991966Y-67847219D01*
X160991968Y-67847215D01*
X160991971Y-67847213D01*
X161051701Y-67765000D01*
X161112287Y-67681610D01*
X161205220Y-67499219D01*
X161268477Y-67304534D01*
X161300500Y-67102352D01*
X161300500Y-66897648D01*
X161268477Y-66695466D01*
X161205220Y-66500781D01*
X161205218Y-66500778D01*
X161205218Y-66500776D01*
X161171503Y-66434607D01*
X161112287Y-66318390D01*
X161104556Y-66307749D01*
X160991971Y-66152786D01*
X160847213Y-66008028D01*
X160681613Y-65887715D01*
X160681612Y-65887714D01*
X160681610Y-65887713D01*
X160624653Y-65858691D01*
X160499223Y-65794781D01*
X160304534Y-65731522D01*
X160129995Y-65703878D01*
X160102352Y-65699500D01*
X159897648Y-65699500D01*
X159873329Y-65703351D01*
X159695465Y-65731522D01*
X159500776Y-65794781D01*
X159318386Y-65887715D01*
X159152786Y-66008028D01*
X159008028Y-66152786D01*
X158887715Y-66318386D01*
X158794781Y-66500776D01*
X158731522Y-66695465D01*
X158699500Y-66897648D01*
X146000000Y-66897648D01*
X146000000Y-62870097D01*
X146985142Y-62870097D01*
X146985142Y-63129902D01*
X147025782Y-63386493D01*
X147106064Y-63633576D01*
X147162741Y-63744809D01*
X147224008Y-63865051D01*
X147376711Y-64075229D01*
X147560413Y-64258931D01*
X147770591Y-64411634D01*
X147918087Y-64486787D01*
X148002065Y-64529577D01*
X148002067Y-64529577D01*
X148002070Y-64529579D01*
X148249149Y-64609860D01*
X148381348Y-64630797D01*
X148505740Y-64650500D01*
X148505745Y-64650500D01*
X148765544Y-64650500D01*
X148878940Y-64632539D01*
X149022135Y-64609860D01*
X149269214Y-64529579D01*
X149500693Y-64411634D01*
X149710871Y-64258931D01*
X149894573Y-64075229D01*
X150047276Y-63865051D01*
X150165221Y-63633572D01*
X150245502Y-63386493D01*
X150280403Y-63166133D01*
X150286142Y-63129902D01*
X150286142Y-62870097D01*
X150255229Y-62674925D01*
X150245502Y-62613507D01*
X150165221Y-62366428D01*
X150165219Y-62366425D01*
X150165219Y-62366423D01*
X150122429Y-62282445D01*
X150047276Y-62134949D01*
X149894573Y-61924771D01*
X149710871Y-61741069D01*
X149710867Y-61741066D01*
X149500696Y-61588368D01*
X149500695Y-61588367D01*
X149500693Y-61588366D01*
X149403658Y-61538924D01*
X149269218Y-61470422D01*
X149022135Y-61390140D01*
X148765544Y-61349500D01*
X148765539Y-61349500D01*
X148505745Y-61349500D01*
X148505740Y-61349500D01*
X148249148Y-61390140D01*
X148002065Y-61470422D01*
X147770587Y-61588368D01*
X147560416Y-61741066D01*
X147560410Y-61741071D01*
X147376713Y-61924768D01*
X147376708Y-61924774D01*
X147224010Y-62134945D01*
X147106064Y-62366423D01*
X147025782Y-62613506D01*
X146985142Y-62870097D01*
X146000000Y-62870097D01*
X146000000Y-61124000D01*
X146019685Y-61056961D01*
X146072489Y-61011206D01*
X146124000Y-61000000D01*
X179846931Y-61000000D01*
X179913970Y-61019685D01*
G37*
%TD.AperFunction*%
%TD*%
M02*
