M48
; DRILL file {KiCad 9.0.0} date 2025-03-04T06:42:25+0800
; FORMAT={-:-/ absolute / metric / decimal}
; #@! TF.CreationDate,2025-03-04T06:42:25+08:00
; #@! TF.GenerationSoftware,Kicad,Pcbnew,9.0.0
; #@! TF.FileFunction,Plated,1,2,PTH
FMAT,2
METRIC
; #@! TA.AperFunction,Plated,PTH,ComponentDrill
T1C0.690
; #@! TA.AperFunction,Plated,PTH,ComponentDrill
T2C0.800
; #@! TA.AperFunction,Plated,PTH,ComponentDrill
T3C0.900
; #@! TA.AperFunction,Plated,PTH,ComponentDrill
T4C1.100
; #@! TA.AperFunction,Plated,PTH,ComponentDrill
T5C1.230
; #@! TA.AperFunction,Plated,PTH,ComponentDrill
T6C1.550
%
G90
G05
T1
X171.488Y-100.5
X174.028Y-97.96
X174.028Y-103.04
X176.568Y-100.5
T2
X115.0Y-121.0
X127.7Y-121.0
X160.0Y-67.0
X172.7Y-67.0
T3
X121.0Y-130.0
X123.54Y-130.0
X133.308Y-87.36
X133.308Y-89.9
X133.308Y-92.44
X133.308Y-94.98
X133.308Y-97.52
X133.308Y-100.06
X133.308Y-102.6
X133.308Y-105.14
X133.308Y-107.68
X133.308Y-110.22
X133.308Y-112.76
X133.308Y-115.3
X133.308Y-117.84
X133.308Y-120.38
X133.308Y-122.92
X133.308Y-125.46
X133.308Y-128.0
X133.308Y-130.54
X133.308Y-133.08
X158.708Y-87.36
X158.708Y-89.9
X158.708Y-92.44
X158.708Y-94.98
X158.708Y-97.52
X158.708Y-100.06
X158.708Y-102.6
X158.708Y-105.14
X158.708Y-107.68
X158.708Y-110.22
X158.708Y-112.76
X158.708Y-115.3
X158.708Y-117.84
X158.708Y-120.38
X158.708Y-122.92
X158.708Y-125.46
X158.708Y-128.0
X158.708Y-130.54
X158.708Y-133.08
X172.475Y-83.5
X175.015Y-83.5
T4
X143.836Y-63.0
X143.92Y-73.0
X146.46Y-73.0
X148.636Y-63.0
X149.0Y-73.0
X170.5Y-114.265
X170.5Y-118.765
X170.5Y-125.5
X170.5Y-130.0
X177.0Y-114.265
X177.0Y-118.765
X177.0Y-125.5
X177.0Y-130.0
T5
X116.42Y-77.0
X118.96Y-77.0
X121.5Y-77.0
X123.92Y-65.0
X126.46Y-65.0
X129.0Y-65.0
T6
X118.5Y-89.0
X118.5Y-100.0
X118.5Y-112.0
X125.5Y-89.0
X125.5Y-100.0
X125.5Y-112.0
M30
