%TF.GenerationSoftware,KiCad,Pcbnew,9.0.0*%
%TF.CreationDate,2025-03-04T06:42:26+08:00*%
%TF.ProjectId,STEC_Design,53544543-5f44-4657-9369-676e2e6b6963,0*%
%TF.SameCoordinates,Original*%
%TF.FileFunction,Legend,Top*%
%TF.FilePolarity,Positive*%
%FSLAX46Y46*%
G04 Gerber Fmt 4.6, Leading zero omitted, Abs format (unit mm)*
G04 Created by KiCad (PCBNEW 9.0.0) date 2025-03-04 06:42:26*
%MOMM*%
%LPD*%
G01*
G04 APERTURE LIST*
%ADD10C,0.150000*%
%ADD11C,0.120000*%
%ADD12C,0.127000*%
%ADD13C,0.200000*%
G04 APERTURE END LIST*
D10*
X173006905Y-79994819D02*
X173006905Y-78994819D01*
X173006905Y-78994819D02*
X173245000Y-78994819D01*
X173245000Y-78994819D02*
X173387857Y-79042438D01*
X173387857Y-79042438D02*
X173483095Y-79137676D01*
X173483095Y-79137676D02*
X173530714Y-79232914D01*
X173530714Y-79232914D02*
X173578333Y-79423390D01*
X173578333Y-79423390D02*
X173578333Y-79566247D01*
X173578333Y-79566247D02*
X173530714Y-79756723D01*
X173530714Y-79756723D02*
X173483095Y-79851961D01*
X173483095Y-79851961D02*
X173387857Y-79947200D01*
X173387857Y-79947200D02*
X173245000Y-79994819D01*
X173245000Y-79994819D02*
X173006905Y-79994819D01*
X173959286Y-79090057D02*
X174006905Y-79042438D01*
X174006905Y-79042438D02*
X174102143Y-78994819D01*
X174102143Y-78994819D02*
X174340238Y-78994819D01*
X174340238Y-78994819D02*
X174435476Y-79042438D01*
X174435476Y-79042438D02*
X174483095Y-79090057D01*
X174483095Y-79090057D02*
X174530714Y-79185295D01*
X174530714Y-79185295D02*
X174530714Y-79280533D01*
X174530714Y-79280533D02*
X174483095Y-79423390D01*
X174483095Y-79423390D02*
X173911667Y-79994819D01*
X173911667Y-79994819D02*
X174530714Y-79994819D01*
X173441195Y-94319819D02*
X173441195Y-95129342D01*
X173441195Y-95129342D02*
X173488814Y-95224580D01*
X173488814Y-95224580D02*
X173536433Y-95272200D01*
X173536433Y-95272200D02*
X173631671Y-95319819D01*
X173631671Y-95319819D02*
X173822147Y-95319819D01*
X173822147Y-95319819D02*
X173917385Y-95272200D01*
X173917385Y-95272200D02*
X173965004Y-95224580D01*
X173965004Y-95224580D02*
X174012623Y-95129342D01*
X174012623Y-95129342D02*
X174012623Y-94319819D01*
X174441195Y-94415057D02*
X174488814Y-94367438D01*
X174488814Y-94367438D02*
X174584052Y-94319819D01*
X174584052Y-94319819D02*
X174822147Y-94319819D01*
X174822147Y-94319819D02*
X174917385Y-94367438D01*
X174917385Y-94367438D02*
X174965004Y-94415057D01*
X174965004Y-94415057D02*
X175012623Y-94510295D01*
X175012623Y-94510295D02*
X175012623Y-94605533D01*
X175012623Y-94605533D02*
X174965004Y-94748390D01*
X174965004Y-94748390D02*
X174393576Y-95319819D01*
X174393576Y-95319819D02*
X175012623Y-95319819D01*
X145698095Y-68184819D02*
X145698095Y-68994342D01*
X145698095Y-68994342D02*
X145745714Y-69089580D01*
X145745714Y-69089580D02*
X145793333Y-69137200D01*
X145793333Y-69137200D02*
X145888571Y-69184819D01*
X145888571Y-69184819D02*
X146079047Y-69184819D01*
X146079047Y-69184819D02*
X146174285Y-69137200D01*
X146174285Y-69137200D02*
X146221904Y-69089580D01*
X146221904Y-69089580D02*
X146269523Y-68994342D01*
X146269523Y-68994342D02*
X146269523Y-68184819D01*
X147269523Y-69184819D02*
X146698095Y-69184819D01*
X146983809Y-69184819D02*
X146983809Y-68184819D01*
X146983809Y-68184819D02*
X146888571Y-68327676D01*
X146888571Y-68327676D02*
X146793333Y-68422914D01*
X146793333Y-68422914D02*
X146698095Y-68470533D01*
X121531905Y-126494819D02*
X121531905Y-125494819D01*
X121531905Y-125494819D02*
X121770000Y-125494819D01*
X121770000Y-125494819D02*
X121912857Y-125542438D01*
X121912857Y-125542438D02*
X122008095Y-125637676D01*
X122008095Y-125637676D02*
X122055714Y-125732914D01*
X122055714Y-125732914D02*
X122103333Y-125923390D01*
X122103333Y-125923390D02*
X122103333Y-126066247D01*
X122103333Y-126066247D02*
X122055714Y-126256723D01*
X122055714Y-126256723D02*
X122008095Y-126351961D01*
X122008095Y-126351961D02*
X121912857Y-126447200D01*
X121912857Y-126447200D02*
X121770000Y-126494819D01*
X121770000Y-126494819D02*
X121531905Y-126494819D01*
X123055714Y-126494819D02*
X122484286Y-126494819D01*
X122770000Y-126494819D02*
X122770000Y-125494819D01*
X122770000Y-125494819D02*
X122674762Y-125637676D01*
X122674762Y-125637676D02*
X122579524Y-125732914D01*
X122579524Y-125732914D02*
X122484286Y-125780533D01*
X121183333Y-118734819D02*
X120850000Y-118258628D01*
X120611905Y-118734819D02*
X120611905Y-117734819D01*
X120611905Y-117734819D02*
X120992857Y-117734819D01*
X120992857Y-117734819D02*
X121088095Y-117782438D01*
X121088095Y-117782438D02*
X121135714Y-117830057D01*
X121135714Y-117830057D02*
X121183333Y-117925295D01*
X121183333Y-117925295D02*
X121183333Y-118068152D01*
X121183333Y-118068152D02*
X121135714Y-118163390D01*
X121135714Y-118163390D02*
X121088095Y-118211009D01*
X121088095Y-118211009D02*
X120992857Y-118258628D01*
X120992857Y-118258628D02*
X120611905Y-118258628D01*
X122135714Y-118734819D02*
X121564286Y-118734819D01*
X121850000Y-118734819D02*
X121850000Y-117734819D01*
X121850000Y-117734819D02*
X121754762Y-117877676D01*
X121754762Y-117877676D02*
X121659524Y-117972914D01*
X121659524Y-117972914D02*
X121564286Y-118020533D01*
X145449927Y-60581009D02*
X145592784Y-60628628D01*
X145592784Y-60628628D02*
X145640403Y-60676247D01*
X145640403Y-60676247D02*
X145688022Y-60771485D01*
X145688022Y-60771485D02*
X145688022Y-60914342D01*
X145688022Y-60914342D02*
X145640403Y-61009580D01*
X145640403Y-61009580D02*
X145592784Y-61057200D01*
X145592784Y-61057200D02*
X145497546Y-61104819D01*
X145497546Y-61104819D02*
X145116594Y-61104819D01*
X145116594Y-61104819D02*
X145116594Y-60104819D01*
X145116594Y-60104819D02*
X145449927Y-60104819D01*
X145449927Y-60104819D02*
X145545165Y-60152438D01*
X145545165Y-60152438D02*
X145592784Y-60200057D01*
X145592784Y-60200057D02*
X145640403Y-60295295D01*
X145640403Y-60295295D02*
X145640403Y-60390533D01*
X145640403Y-60390533D02*
X145592784Y-60485771D01*
X145592784Y-60485771D02*
X145545165Y-60533390D01*
X145545165Y-60533390D02*
X145449927Y-60581009D01*
X145449927Y-60581009D02*
X145116594Y-60581009D01*
X145973737Y-60104819D02*
X146545165Y-60104819D01*
X146259451Y-61104819D02*
X146259451Y-60104819D01*
X147402308Y-61104819D02*
X146830880Y-61104819D01*
X147116594Y-61104819D02*
X147116594Y-60104819D01*
X147116594Y-60104819D02*
X147021356Y-60247676D01*
X147021356Y-60247676D02*
X146926118Y-60342914D01*
X146926118Y-60342914D02*
X146830880Y-60390533D01*
X124082261Y-60632557D02*
X123987023Y-60584938D01*
X123987023Y-60584938D02*
X123891785Y-60489700D01*
X123891785Y-60489700D02*
X123748928Y-60346842D01*
X123748928Y-60346842D02*
X123653690Y-60299223D01*
X123653690Y-60299223D02*
X123558452Y-60299223D01*
X123606071Y-60537319D02*
X123510833Y-60489700D01*
X123510833Y-60489700D02*
X123415595Y-60394461D01*
X123415595Y-60394461D02*
X123367976Y-60203985D01*
X123367976Y-60203985D02*
X123367976Y-59870652D01*
X123367976Y-59870652D02*
X123415595Y-59680176D01*
X123415595Y-59680176D02*
X123510833Y-59584938D01*
X123510833Y-59584938D02*
X123606071Y-59537319D01*
X123606071Y-59537319D02*
X123796547Y-59537319D01*
X123796547Y-59537319D02*
X123891785Y-59584938D01*
X123891785Y-59584938D02*
X123987023Y-59680176D01*
X123987023Y-59680176D02*
X124034642Y-59870652D01*
X124034642Y-59870652D02*
X124034642Y-60203985D01*
X124034642Y-60203985D02*
X123987023Y-60394461D01*
X123987023Y-60394461D02*
X123891785Y-60489700D01*
X123891785Y-60489700D02*
X123796547Y-60537319D01*
X123796547Y-60537319D02*
X123606071Y-60537319D01*
X124987023Y-60537319D02*
X124415595Y-60537319D01*
X124701309Y-60537319D02*
X124701309Y-59537319D01*
X124701309Y-59537319D02*
X124606071Y-59680176D01*
X124606071Y-59680176D02*
X124510833Y-59775414D01*
X124510833Y-59775414D02*
X124415595Y-59823033D01*
X120809524Y-86504819D02*
X120809524Y-85504819D01*
X120809524Y-85504819D02*
X121190476Y-85504819D01*
X121190476Y-85504819D02*
X121285714Y-85552438D01*
X121285714Y-85552438D02*
X121333333Y-85600057D01*
X121333333Y-85600057D02*
X121380952Y-85695295D01*
X121380952Y-85695295D02*
X121380952Y-85838152D01*
X121380952Y-85838152D02*
X121333333Y-85933390D01*
X121333333Y-85933390D02*
X121285714Y-85981009D01*
X121285714Y-85981009D02*
X121190476Y-86028628D01*
X121190476Y-86028628D02*
X120809524Y-86028628D01*
X121809524Y-85981009D02*
X122142857Y-85981009D01*
X122285714Y-86504819D02*
X121809524Y-86504819D01*
X121809524Y-86504819D02*
X121809524Y-85504819D01*
X121809524Y-85504819D02*
X122285714Y-85504819D01*
X123238095Y-86504819D02*
X122666667Y-86504819D01*
X122952381Y-86504819D02*
X122952381Y-85504819D01*
X122952381Y-85504819D02*
X122857143Y-85647676D01*
X122857143Y-85647676D02*
X122761905Y-85742914D01*
X122761905Y-85742914D02*
X122666667Y-85790533D01*
X120809524Y-97504819D02*
X120809524Y-96504819D01*
X120809524Y-96504819D02*
X121190476Y-96504819D01*
X121190476Y-96504819D02*
X121285714Y-96552438D01*
X121285714Y-96552438D02*
X121333333Y-96600057D01*
X121333333Y-96600057D02*
X121380952Y-96695295D01*
X121380952Y-96695295D02*
X121380952Y-96838152D01*
X121380952Y-96838152D02*
X121333333Y-96933390D01*
X121333333Y-96933390D02*
X121285714Y-96981009D01*
X121285714Y-96981009D02*
X121190476Y-97028628D01*
X121190476Y-97028628D02*
X120809524Y-97028628D01*
X121809524Y-96981009D02*
X122142857Y-96981009D01*
X122285714Y-97504819D02*
X121809524Y-97504819D01*
X121809524Y-97504819D02*
X121809524Y-96504819D01*
X121809524Y-96504819D02*
X122285714Y-96504819D01*
X122666667Y-96600057D02*
X122714286Y-96552438D01*
X122714286Y-96552438D02*
X122809524Y-96504819D01*
X122809524Y-96504819D02*
X123047619Y-96504819D01*
X123047619Y-96504819D02*
X123142857Y-96552438D01*
X123142857Y-96552438D02*
X123190476Y-96600057D01*
X123190476Y-96600057D02*
X123238095Y-96695295D01*
X123238095Y-96695295D02*
X123238095Y-96790533D01*
X123238095Y-96790533D02*
X123190476Y-96933390D01*
X123190476Y-96933390D02*
X122619048Y-97504819D01*
X122619048Y-97504819D02*
X123238095Y-97504819D01*
X172416667Y-112672200D02*
X172559524Y-112719819D01*
X172559524Y-112719819D02*
X172797619Y-112719819D01*
X172797619Y-112719819D02*
X172892857Y-112672200D01*
X172892857Y-112672200D02*
X172940476Y-112624580D01*
X172940476Y-112624580D02*
X172988095Y-112529342D01*
X172988095Y-112529342D02*
X172988095Y-112434104D01*
X172988095Y-112434104D02*
X172940476Y-112338866D01*
X172940476Y-112338866D02*
X172892857Y-112291247D01*
X172892857Y-112291247D02*
X172797619Y-112243628D01*
X172797619Y-112243628D02*
X172607143Y-112196009D01*
X172607143Y-112196009D02*
X172511905Y-112148390D01*
X172511905Y-112148390D02*
X172464286Y-112100771D01*
X172464286Y-112100771D02*
X172416667Y-112005533D01*
X172416667Y-112005533D02*
X172416667Y-111910295D01*
X172416667Y-111910295D02*
X172464286Y-111815057D01*
X172464286Y-111815057D02*
X172511905Y-111767438D01*
X172511905Y-111767438D02*
X172607143Y-111719819D01*
X172607143Y-111719819D02*
X172845238Y-111719819D01*
X172845238Y-111719819D02*
X172988095Y-111767438D01*
X173321429Y-111719819D02*
X173559524Y-112719819D01*
X173559524Y-112719819D02*
X173750000Y-112005533D01*
X173750000Y-112005533D02*
X173940476Y-112719819D01*
X173940476Y-112719819D02*
X174178572Y-111719819D01*
X174511905Y-111815057D02*
X174559524Y-111767438D01*
X174559524Y-111767438D02*
X174654762Y-111719819D01*
X174654762Y-111719819D02*
X174892857Y-111719819D01*
X174892857Y-111719819D02*
X174988095Y-111767438D01*
X174988095Y-111767438D02*
X175035714Y-111815057D01*
X175035714Y-111815057D02*
X175083333Y-111910295D01*
X175083333Y-111910295D02*
X175083333Y-112005533D01*
X175083333Y-112005533D02*
X175035714Y-112148390D01*
X175035714Y-112148390D02*
X174464286Y-112719819D01*
X174464286Y-112719819D02*
X175083333Y-112719819D01*
X172416667Y-123907200D02*
X172559524Y-123954819D01*
X172559524Y-123954819D02*
X172797619Y-123954819D01*
X172797619Y-123954819D02*
X172892857Y-123907200D01*
X172892857Y-123907200D02*
X172940476Y-123859580D01*
X172940476Y-123859580D02*
X172988095Y-123764342D01*
X172988095Y-123764342D02*
X172988095Y-123669104D01*
X172988095Y-123669104D02*
X172940476Y-123573866D01*
X172940476Y-123573866D02*
X172892857Y-123526247D01*
X172892857Y-123526247D02*
X172797619Y-123478628D01*
X172797619Y-123478628D02*
X172607143Y-123431009D01*
X172607143Y-123431009D02*
X172511905Y-123383390D01*
X172511905Y-123383390D02*
X172464286Y-123335771D01*
X172464286Y-123335771D02*
X172416667Y-123240533D01*
X172416667Y-123240533D02*
X172416667Y-123145295D01*
X172416667Y-123145295D02*
X172464286Y-123050057D01*
X172464286Y-123050057D02*
X172511905Y-123002438D01*
X172511905Y-123002438D02*
X172607143Y-122954819D01*
X172607143Y-122954819D02*
X172845238Y-122954819D01*
X172845238Y-122954819D02*
X172988095Y-123002438D01*
X173321429Y-122954819D02*
X173559524Y-123954819D01*
X173559524Y-123954819D02*
X173750000Y-123240533D01*
X173750000Y-123240533D02*
X173940476Y-123954819D01*
X173940476Y-123954819D02*
X174178572Y-122954819D01*
X175083333Y-123954819D02*
X174511905Y-123954819D01*
X174797619Y-123954819D02*
X174797619Y-122954819D01*
X174797619Y-122954819D02*
X174702381Y-123097676D01*
X174702381Y-123097676D02*
X174607143Y-123192914D01*
X174607143Y-123192914D02*
X174511905Y-123240533D01*
X116582261Y-72632557D02*
X116487023Y-72584938D01*
X116487023Y-72584938D02*
X116391785Y-72489700D01*
X116391785Y-72489700D02*
X116248928Y-72346842D01*
X116248928Y-72346842D02*
X116153690Y-72299223D01*
X116153690Y-72299223D02*
X116058452Y-72299223D01*
X116106071Y-72537319D02*
X116010833Y-72489700D01*
X116010833Y-72489700D02*
X115915595Y-72394461D01*
X115915595Y-72394461D02*
X115867976Y-72203985D01*
X115867976Y-72203985D02*
X115867976Y-71870652D01*
X115867976Y-71870652D02*
X115915595Y-71680176D01*
X115915595Y-71680176D02*
X116010833Y-71584938D01*
X116010833Y-71584938D02*
X116106071Y-71537319D01*
X116106071Y-71537319D02*
X116296547Y-71537319D01*
X116296547Y-71537319D02*
X116391785Y-71584938D01*
X116391785Y-71584938D02*
X116487023Y-71680176D01*
X116487023Y-71680176D02*
X116534642Y-71870652D01*
X116534642Y-71870652D02*
X116534642Y-72203985D01*
X116534642Y-72203985D02*
X116487023Y-72394461D01*
X116487023Y-72394461D02*
X116391785Y-72489700D01*
X116391785Y-72489700D02*
X116296547Y-72537319D01*
X116296547Y-72537319D02*
X116106071Y-72537319D01*
X116915595Y-71632557D02*
X116963214Y-71584938D01*
X116963214Y-71584938D02*
X117058452Y-71537319D01*
X117058452Y-71537319D02*
X117296547Y-71537319D01*
X117296547Y-71537319D02*
X117391785Y-71584938D01*
X117391785Y-71584938D02*
X117439404Y-71632557D01*
X117439404Y-71632557D02*
X117487023Y-71727795D01*
X117487023Y-71727795D02*
X117487023Y-71823033D01*
X117487023Y-71823033D02*
X117439404Y-71965890D01*
X117439404Y-71965890D02*
X116867976Y-72537319D01*
X116867976Y-72537319D02*
X117487023Y-72537319D01*
X120809524Y-109504819D02*
X120809524Y-108504819D01*
X120809524Y-108504819D02*
X121190476Y-108504819D01*
X121190476Y-108504819D02*
X121285714Y-108552438D01*
X121285714Y-108552438D02*
X121333333Y-108600057D01*
X121333333Y-108600057D02*
X121380952Y-108695295D01*
X121380952Y-108695295D02*
X121380952Y-108838152D01*
X121380952Y-108838152D02*
X121333333Y-108933390D01*
X121333333Y-108933390D02*
X121285714Y-108981009D01*
X121285714Y-108981009D02*
X121190476Y-109028628D01*
X121190476Y-109028628D02*
X120809524Y-109028628D01*
X121809524Y-108981009D02*
X122142857Y-108981009D01*
X122285714Y-109504819D02*
X121809524Y-109504819D01*
X121809524Y-109504819D02*
X121809524Y-108504819D01*
X121809524Y-108504819D02*
X122285714Y-108504819D01*
X122619048Y-108504819D02*
X123238095Y-108504819D01*
X123238095Y-108504819D02*
X122904762Y-108885771D01*
X122904762Y-108885771D02*
X123047619Y-108885771D01*
X123047619Y-108885771D02*
X123142857Y-108933390D01*
X123142857Y-108933390D02*
X123190476Y-108981009D01*
X123190476Y-108981009D02*
X123238095Y-109076247D01*
X123238095Y-109076247D02*
X123238095Y-109314342D01*
X123238095Y-109314342D02*
X123190476Y-109409580D01*
X123190476Y-109409580D02*
X123142857Y-109457200D01*
X123142857Y-109457200D02*
X123047619Y-109504819D01*
X123047619Y-109504819D02*
X122761905Y-109504819D01*
X122761905Y-109504819D02*
X122666667Y-109457200D01*
X122666667Y-109457200D02*
X122619048Y-109409580D01*
X139213737Y-77582319D02*
X139213737Y-78391842D01*
X139213737Y-78391842D02*
X139261356Y-78487080D01*
X139261356Y-78487080D02*
X139308975Y-78534700D01*
X139308975Y-78534700D02*
X139404213Y-78582319D01*
X139404213Y-78582319D02*
X139594689Y-78582319D01*
X139594689Y-78582319D02*
X139689927Y-78534700D01*
X139689927Y-78534700D02*
X139737546Y-78487080D01*
X139737546Y-78487080D02*
X139785165Y-78391842D01*
X139785165Y-78391842D02*
X139785165Y-77582319D01*
X140689927Y-77915652D02*
X140689927Y-78582319D01*
X140451832Y-77534700D02*
X140213737Y-78248985D01*
X140213737Y-78248985D02*
X140832784Y-78248985D01*
X166183333Y-64734819D02*
X165850000Y-64258628D01*
X165611905Y-64734819D02*
X165611905Y-63734819D01*
X165611905Y-63734819D02*
X165992857Y-63734819D01*
X165992857Y-63734819D02*
X166088095Y-63782438D01*
X166088095Y-63782438D02*
X166135714Y-63830057D01*
X166135714Y-63830057D02*
X166183333Y-63925295D01*
X166183333Y-63925295D02*
X166183333Y-64068152D01*
X166183333Y-64068152D02*
X166135714Y-64163390D01*
X166135714Y-64163390D02*
X166088095Y-64211009D01*
X166088095Y-64211009D02*
X165992857Y-64258628D01*
X165992857Y-64258628D02*
X165611905Y-64258628D01*
X166564286Y-63830057D02*
X166611905Y-63782438D01*
X166611905Y-63782438D02*
X166707143Y-63734819D01*
X166707143Y-63734819D02*
X166945238Y-63734819D01*
X166945238Y-63734819D02*
X167040476Y-63782438D01*
X167040476Y-63782438D02*
X167088095Y-63830057D01*
X167088095Y-63830057D02*
X167135714Y-63925295D01*
X167135714Y-63925295D02*
X167135714Y-64020533D01*
X167135714Y-64020533D02*
X167088095Y-64163390D01*
X167088095Y-64163390D02*
X166516667Y-64734819D01*
X166516667Y-64734819D02*
X167135714Y-64734819D01*
D11*
%TO.C,D2*%
X171185000Y-81955000D02*
X171185000Y-85045000D01*
X171185000Y-81955170D02*
G75*
G02*
X176735000Y-83499952I2560000J-1544830D01*
G01*
X176735000Y-83500048D02*
G75*
G02*
X171185000Y-85044830I-2990000J48D01*
G01*
X176245000Y-83500000D02*
G75*
G02*
X171245000Y-83500000I-2500000J0D01*
G01*
X171245000Y-83500000D02*
G75*
G02*
X176245000Y-83500000I2500000J0D01*
G01*
D12*
%TO.C,U2*%
X169826100Y-96864000D02*
X170392100Y-96298000D01*
X170392100Y-96298000D02*
X171099100Y-97005000D01*
X170533100Y-97571000D02*
X169826100Y-96864000D01*
X171099100Y-97005000D02*
G75*
G02*
X170533100Y-97571000I2903656J-3469656D01*
G01*
D13*
X168928100Y-100500000D02*
G75*
G02*
X168728100Y-100500000I-100000J0D01*
G01*
X168728100Y-100500000D02*
G75*
G02*
X168928100Y-100500000I100000J0D01*
G01*
D11*
%TO.C,U1*%
X141340000Y-69730000D02*
X141340000Y-74371000D01*
X141340000Y-69730000D02*
X151580000Y-69730000D01*
X141340000Y-71240000D02*
X151580000Y-71240000D01*
X141340000Y-74371000D02*
X151580000Y-74371000D01*
X144610000Y-69730000D02*
X144610000Y-71240000D01*
X148311000Y-69730000D02*
X148311000Y-71240000D01*
X151580000Y-69730000D02*
X151580000Y-74371000D01*
%TO.C,D1*%
X119710000Y-128455000D02*
X119710000Y-131545000D01*
X119710000Y-128455170D02*
G75*
G02*
X125260000Y-129999952I2560000J-1544830D01*
G01*
X125260000Y-130000048D02*
G75*
G02*
X119710000Y-131544830I-2990000J48D01*
G01*
X124770000Y-130000000D02*
G75*
G02*
X119770000Y-130000000I-2500000J0D01*
G01*
X119770000Y-130000000D02*
G75*
G02*
X124770000Y-130000000I2500000J0D01*
G01*
%TO.C,R1*%
X116040000Y-121000000D02*
X116730000Y-121000000D01*
X116730000Y-119280000D02*
X116730000Y-122720000D01*
X116730000Y-122720000D02*
X125970000Y-122720000D01*
X125970000Y-119280000D02*
X116730000Y-119280000D01*
X125970000Y-122720000D02*
X125970000Y-119280000D01*
X126660000Y-121000000D02*
X125970000Y-121000000D01*
D12*
%TO.C,Q1*%
X121252500Y-61967500D02*
X131667500Y-61967500D01*
X121252500Y-66412500D02*
X121252500Y-61967500D01*
X131667500Y-61967500D02*
X131667500Y-66412500D01*
X131667500Y-66412500D02*
X121252500Y-66412500D01*
D13*
X120602500Y-65000000D02*
G75*
G02*
X120402500Y-65000000I-100000J0D01*
G01*
X120402500Y-65000000D02*
G75*
G02*
X120602500Y-65000000I100000J0D01*
G01*
D11*
%TO.C,SW2*%
X170250000Y-115765000D02*
X170250000Y-117265000D01*
X171500000Y-119765000D02*
X176000000Y-119765000D01*
X176000000Y-113265000D02*
X171500000Y-113265000D01*
X177250000Y-117265000D02*
X177250000Y-115765000D01*
%TO.C,SW1*%
X170250000Y-127000000D02*
X170250000Y-128500000D01*
X171500000Y-131000000D02*
X176000000Y-131000000D01*
X176000000Y-124500000D02*
X171500000Y-124500000D01*
X177250000Y-128500000D02*
X177250000Y-127000000D01*
D12*
%TO.C,Q2*%
X113752500Y-73967500D02*
X124167500Y-73967500D01*
X113752500Y-78412500D02*
X113752500Y-73967500D01*
X124167500Y-73967500D02*
X124167500Y-78412500D01*
X124167500Y-78412500D02*
X113752500Y-78412500D01*
D13*
X113102500Y-77000000D02*
G75*
G02*
X112902500Y-77000000I-100000J0D01*
G01*
X112902500Y-77000000D02*
G75*
G02*
X113102500Y-77000000I100000J0D01*
G01*
D12*
%TO.C,U4*%
X132038142Y-133325000D02*
X132038142Y-87065000D01*
X133038142Y-86065000D02*
X137008142Y-86065000D01*
X133038142Y-134325000D02*
X141958142Y-134325000D01*
X137008142Y-79325000D02*
X155008142Y-79325000D01*
X137008142Y-86065000D02*
X137008142Y-79325000D01*
X141958142Y-134325000D02*
X141958142Y-135325000D01*
X141958142Y-135325000D02*
X150058142Y-135325000D01*
X150058142Y-134325000D02*
X158978142Y-134325000D01*
X150058142Y-135325000D02*
X150058142Y-134325000D01*
X155008142Y-79325000D02*
X155008142Y-86065000D01*
X155008142Y-86065000D02*
X158978142Y-86065000D01*
X159978142Y-133325000D02*
X159978142Y-87065000D01*
X132038142Y-87065000D02*
G75*
G02*
X133038142Y-86065000I999999J1D01*
G01*
X133038142Y-134325000D02*
G75*
G02*
X132038142Y-133325000I-1J999999D01*
G01*
X158978142Y-86065000D02*
G75*
G02*
X159978142Y-87065000I0J-1000000D01*
G01*
X159978142Y-133325000D02*
G75*
G02*
X158978142Y-134325000I-1000000J0D01*
G01*
D13*
X131608142Y-87360000D02*
G75*
G02*
X131408142Y-87360000I-100000J0D01*
G01*
X131408142Y-87360000D02*
G75*
G02*
X131608142Y-87360000I100000J0D01*
G01*
D11*
%TO.C,R2*%
X161040000Y-67000000D02*
X161730000Y-67000000D01*
X161730000Y-65280000D02*
X161730000Y-68720000D01*
X161730000Y-68720000D02*
X170970000Y-68720000D01*
X170970000Y-65280000D02*
X161730000Y-65280000D01*
X170970000Y-68720000D02*
X170970000Y-65280000D01*
X171660000Y-67000000D02*
X170970000Y-67000000D01*
%TD*%
M02*
