%TF.GenerationSoftware,KiCad,Pcbnew,9.0.0*%
%TF.CreationDate,2025-03-04T06:42:26+08:00*%
%TF.ProjectId,STEC_Design,53544543-5f44-4657-9369-676e2e6b6963,0*%
%TF.SameCoordinates,Original*%
%TF.FileFunction,Soldermask,Bot*%
%TF.FilePolarity,Negative*%
%FSLAX46Y46*%
G04 Gerber Fmt 4.6, Leading zero omitted, Abs format (unit mm)*
G04 Created by KiCad (PCBNEW 9.0.0) date 2025-03-04 06:42:26*
%MOMM*%
%LPD*%
G01*
G04 APERTURE LIST*
G04 Aperture macros list*
%AMRoundRect*
0 Rectangle with rounded corners*
0 $1 Rounding radius*
0 $2 $3 $4 $5 $6 $7 $8 $9 X,Y pos of 4 corners*
0 Add a 4 corners polygon primitive as box body*
4,1,4,$2,$3,$4,$5,$6,$7,$8,$9,$2,$3,0*
0 Add four circle primitives for the rounded corners*
1,1,$1+$1,$2,$3*
1,1,$1+$1,$4,$5*
1,1,$1+$1,$6,$7*
1,1,$1+$1,$8,$9*
0 Add four rect primitives between the rounded corners*
20,1,$1+$1,$2,$3,$4,$5,0*
20,1,$1+$1,$4,$5,$6,$7,0*
20,1,$1+$1,$6,$7,$8,$9,0*
20,1,$1+$1,$8,$9,$2,$3,0*%
G04 Aperture macros list end*
%ADD10R,1.800000X1.800000*%
%ADD11C,1.800000*%
%ADD12R,1.090000X1.090000*%
%ADD13C,1.090000*%
%ADD14R,1.905000X2.000000*%
%ADD15O,1.905000X2.000000*%
%ADD16C,1.600000*%
%ADD17O,1.600000X1.600000*%
%ADD18RoundRect,0.250001X-0.899999X-0.899999X0.899999X-0.899999X0.899999X0.899999X-0.899999X0.899999X0*%
%ADD19C,2.300000*%
%ADD20R,1.845000X1.845000*%
%ADD21C,1.845000*%
%ADD22RoundRect,0.250002X-1.499998X-1.499998X1.499998X-1.499998X1.499998X1.499998X-1.499998X1.499998X0*%
%ADD23C,3.500000*%
%ADD24C,2.000000*%
%ADD25R,1.408000X1.408000*%
%ADD26C,1.408000*%
G04 APERTURE END LIST*
D10*
%TO.C,D2*%
X172475000Y-83500000D03*
D11*
X175015000Y-83500000D03*
%TD*%
D12*
%TO.C,U2*%
X171488100Y-100500000D03*
D13*
X174028100Y-103040000D03*
X176568100Y-100500000D03*
X174028100Y-97960000D03*
%TD*%
D14*
%TO.C,U1*%
X143920000Y-73000000D03*
D15*
X146460000Y-73000000D03*
X149000000Y-73000000D03*
%TD*%
D10*
%TO.C,D1*%
X121000000Y-130000000D03*
D11*
X123540000Y-130000000D03*
%TD*%
D16*
%TO.C,R1*%
X115000000Y-121000000D03*
D17*
X127700000Y-121000000D03*
%TD*%
D18*
%TO.C,BT1*%
X143835642Y-63000000D03*
D19*
X148635642Y-63000000D03*
%TD*%
D20*
%TO.C,Q1*%
X123920000Y-65000000D03*
D21*
X126460000Y-65000000D03*
X129000000Y-65000000D03*
%TD*%
D22*
%TO.C,PE1*%
X118500000Y-89000000D03*
D23*
X125500000Y-89000000D03*
%TD*%
D22*
%TO.C,PE2*%
X118500000Y-100000000D03*
D23*
X125500000Y-100000000D03*
%TD*%
D24*
%TO.C,SW2*%
X170500000Y-114265000D03*
X177000000Y-114265000D03*
X170500000Y-118765000D03*
X177000000Y-118765000D03*
%TD*%
%TO.C,SW1*%
X170500000Y-125500000D03*
X177000000Y-125500000D03*
X170500000Y-130000000D03*
X177000000Y-130000000D03*
%TD*%
D20*
%TO.C,Q2*%
X116420000Y-77000000D03*
D21*
X118960000Y-77000000D03*
X121500000Y-77000000D03*
%TD*%
D22*
%TO.C,PE3*%
X118500000Y-112000000D03*
D23*
X125500000Y-112000000D03*
%TD*%
D25*
%TO.C,U4*%
X133308142Y-87360000D03*
D26*
X133308142Y-89900000D03*
X133308142Y-92440000D03*
X133308142Y-94980000D03*
X133308142Y-97520000D03*
X133308142Y-100060000D03*
X133308142Y-102600000D03*
X133308142Y-105140000D03*
X133308142Y-107680000D03*
X133308142Y-110220000D03*
X133308142Y-112760000D03*
X133308142Y-115300000D03*
X133308142Y-117840000D03*
X133308142Y-120380000D03*
X133308142Y-122920000D03*
X133308142Y-125460000D03*
X133308142Y-128000000D03*
X133308142Y-130540000D03*
X133308142Y-133080000D03*
X158708142Y-87360000D03*
X158708142Y-89900000D03*
X158708142Y-92440000D03*
X158708142Y-94980000D03*
X158708142Y-97520000D03*
X158708142Y-100060000D03*
X158708142Y-102600000D03*
X158708142Y-105140000D03*
X158708142Y-107680000D03*
X158708142Y-110220000D03*
X158708142Y-112760000D03*
X158708142Y-115300000D03*
X158708142Y-117840000D03*
X158708142Y-120380000D03*
X158708142Y-122920000D03*
X158708142Y-125460000D03*
X158708142Y-128000000D03*
X158708142Y-130540000D03*
X158708142Y-133080000D03*
%TD*%
D16*
%TO.C,R2*%
X160000000Y-67000000D03*
D17*
X172700000Y-67000000D03*
%TD*%
M02*
